<svg width="22" height="16" viewBox="0 0 22 16" fill="none" xmlns="http://www.w3.org/2000/svg">
    <path fill-rule="evenodd" clip-rule="evenodd" d="M15.3431 0.929125L21.7071 7.29309C22.0976 7.68361 22.0976 8.31678 21.7071 8.7073L15.3431 15.0713C14.9526 15.4618 14.3195 15.4618 13.9289 15.0713C13.5384 14.6807 13.5384 14.0476 13.9289 13.657L18.5858 9.00019L0.999999 9.00019C0.447714 9.00019 -6.9206e-07 8.55248 -6.43778e-07 8.00019C-5.95496e-07 7.44791 0.447715 7.00019 0.999999 7.00019L18.5858 7.00019L13.9289 2.34334C13.5384 1.95281 13.5384 1.31965 13.9289 0.929125C14.3195 0.538601 14.9526 0.538601 15.3431 0.929125Z" fill="white"/>
</svg>
