<svg id="e9lui32qWsa1" xmlns="http://www.w3.org/2000/svg" xmlns:xlink="http://www.w3.org/1999/xlink" viewBox="0 0 462 174" shape-rendering="geometricPrecision" text-rendering="geometricPrecision"><style><![CDATA[#e9lui32qWsa5_to {animation: e9lui32qWsa5_to__to 2000ms linear infinite normal forwards}@keyframes e9lui32qWsa5_to__to { 0% {transform: translate(231.126px,-115.306px);animation-timing-function: cubic-bezier(0.25,1,0.25,1)} 60% {transform: translate(231.126px,-57.8597px);animation-timing-function: cubic-bezier(0.25,1,0.25,1)} 100% {transform: translate(231.126px,-115.306px)}} #e9lui32qWsa7_to {animation: e9lui32qWsa7_to__to 2000ms linear infinite normal forwards}@keyframes e9lui32qWsa7_to__to { 0% {transform: translate(231.218px,-0.127998px);animation-timing-function: cubic-bezier(0.25,1,0.25,1)} 50% {transform: translate(173.680162px,-0.127998px);animation-timing-function: cubic-bezier(0.25,1,0.25,1)} 100% {transform: translate(231.218px,-0.127998px)}} #e9lui32qWsa13_to {animation: e9lui32qWsa13_to__to 2000ms linear infinite normal forwards}@keyframes e9lui32qWsa13_to__to { 0% {transform: translate(375.268997px,86.870598px);animation-timing-function: cubic-bezier(0.25,1,0.25,1)} 25% {transform: translate(375.268997px,86.870598px);animation-timing-function: cubic-bezier(0.25,1,0.25,1)} 50% {transform: translate(317.539797px,86.870598px);animation-timing-function: cubic-bezier(0.25,1,0.25,1)} 100% {transform: translate(375.268997px,86.870598px)}} #e9lui32qWsa15_to {animation: e9lui32qWsa15_to__to 2000ms linear infinite normal forwards}@keyframes e9lui32qWsa15_to__to { 0% {transform: translate(115.951353px,-115.4px);animation-timing-function: cubic-bezier(0.25,1,0.25,1)} 50% {transform: translate(173.489191px,-115.4px);animation-timing-function: cubic-bezier(0.25,1,0.25,1)} 100% {transform: translate(115.951353px,-115.4px)}}]]></style><rect width="115.27" height="57.5408" rx="28.7704" ry="28.7704" transform="translate(.405762 115.545)" fill="#0285fd"/><rect width="115.27" height="57.5408" rx="28.7704" ry="28.7704" transform="translate(346.404 115.545)" fill="#FFFB1F"/><rect width="115.459" height="57.5408" rx="28.7704" ry="28.7704" transform="matrix(0 1-1 0 173.2161 58.004)" fill="#0285fd"/><g id="e9lui32qWsa5_to" transform="translate(231.126,-115.306)"><rect width="57.7295" height="57.5408" rx="28.7704" ry="28.7704" transform="rotate(90) translate(173.216,57.9102)" fill="#FFFB1F"/></g><rect width="57.9182" height="57.5408" rx="28.7704" ry="28.7704" transform="translate(173.216 58.1914)" fill="#FFFB1F"/><g id="e9lui32qWsa7_to" transform="translate(231.218,-0.127998)"><rect width="57.918" height="57.5408" rx="28.7704" ry="28.7704" transform="rotate(90) translate(115.673,115.545)" fill="#5cee9c"/></g><rect width="115.082" height="57.5408" rx="28.7704" ry="28.7704" transform="translate(58.1343 0.369141)" fill="#0285fd"/><rect width="57.7294" height="57.5408" rx="28.7704" ry="28.7704" transform="translate(.405762 0.369141)" fill="#0285fd"/><rect width="57.7294" height="57.5408" rx="28.7704" ry="28.7704" transform="translate(288.675 115.639)" fill="#0285fd"/><rect width="115.27" height="57.5408" rx="28.7704" ry="28.7704" transform="translate(.405762 58.0039)" fill="#5cee9c"/><rect width="115.459" height="57.5408" rx="28.7704" ry="28.7704" transform="matrix(-1 0 0-1 404.134 115.736)" fill="#5cee9c"/><g id="e9lui32qWsa13_to" transform="translate(375.268997,86.870598)"><circle r="28.8647" transform="translate(0.000003,0.000002)" fill="#0285fd"/></g><rect width="57.7294" height="57.5408" rx="28.7704" ry="28.7704" transform="translate(346.404 0.464844)" fill="#5cee9c"/><g id="e9lui32qWsa15_to" transform="translate(115.951353,-115.4)"><rect width="57.7295" height="57.5408" rx="28.7704" ry="28.7704" transform="rotate(90) translate(115.675,0.275391)" fill="#FFFB1F"/></g></svg>