<svg width="336" height="269" viewBox="0 0 336 269" fill="none" xmlns="http://www.w3.org/2000/svg">
	<rect x="202.104" y="1.33032" width="132.939" height="65.7508" rx="32.8754" stroke="#7B8199"/>
	<rect x="201.994" y="1.33032" width="65.9697" height="65.7508" rx="32.8754" fill="#5CEE9C" stroke="#7B8199"/>
	<rect x="268.854" y="68.0823" width="66.1885" height="65.7508" rx="32.8754" fill="#5CEE9C" stroke="#7B8199"/>
	<rect x="135.243" y="133.832" width="132.502" height="65.7508" rx="32.8754" transform="rotate(-90 135.243 133.832)" stroke="#7B8199"/>
	<rect x="135.243" y="200.801" width="65.9696" height="65.7508" rx="32.8754" transform="rotate(-90 135.243 200.801)" stroke="#7B8199"/>
	<rect x="268.964" y="201.02" width="65.9696" height="65.7508" rx="32.8754" transform="rotate(-90 268.964 201.02)" fill="#FFFB1F" stroke="#7B8199"/>
	<rect x="202.104" y="200.801" width="132.72" height="65.7508" rx="32.8754" transform="rotate(-90 202.104 200.801)" stroke="#7B8199"/>
	<rect x="135.134" y="68.0823" width="65.9697" height="65.7508" rx="32.8754" fill="#FFFB1F" stroke="#7B8199"/>
	<rect x="134.353" y="267.77" width="132.939" height="65.7508" rx="32.8754" transform="rotate(180 134.353 267.77)" stroke="#7B8199"/>
	<circle cx="101.039" cy="100.63" r="32.9848" stroke="#7B8199"/>
	<circle cx="168.009" cy="234.784" r="32.9848" stroke="#7B8199"/>
	<circle cx="101.368" cy="167.817" r="32.9848" fill="#FFFB1F" stroke="#7B8199"/>
</svg>
