<svg width="53" height="53" viewBox="0 0 53 53" fill="none" xmlns="http://www.w3.org/2000/svg">
	<path d="M0.996094 26.7845C0.996094 12.4251 12.6367 0.784546 26.9961 0.784546C41.3555 0.784546 52.9961 12.4251 52.9961 26.7845C52.9961 41.1439 41.3555 52.7845 26.9961 52.7845H0.996094V26.7845Z" fill="#FF5252"/>
	<path d="M38.6628 20.7066C37.6206 18.5677 34.6184 16.8177 31.1262 17.8366C29.4574 18.3186 28.0014 19.3523 26.9962 20.7688C25.9909 19.3523 24.5349 18.3186 22.8662 17.8366C19.3662 16.8332 16.3717 18.5677 15.3295 20.7066C13.8673 23.701 14.4739 27.0688 17.1339 30.7166C19.2184 33.571 22.1973 36.4644 26.5217 39.8244C26.6584 39.9309 26.8267 39.9888 27 39.9888C27.1734 39.9888 27.3417 39.9309 27.4784 39.8244C31.795 36.4721 34.7817 33.6021 36.8662 30.7166C39.5184 27.0688 40.125 23.701 38.6628 20.7066Z" fill="white"/>
</svg>
