<svg width="71" height="71" viewBox="0 0 71 71" fill="none" xmlns="http://www.w3.org/2000/svg">
	<circle cx="35.1963" cy="35.5898" r="35" fill="#5CEE9C"/>
	<path fill-rule="evenodd" clip-rule="evenodd" d="M35.1963 14.5898C39.3497 14.5898 43.4098 15.8215 46.8633 18.129C50.3167 20.4365 53.0083 23.7162 54.5978 27.5535C56.1872 31.3907 56.6031 35.6131 55.7928 39.6867C54.9825 43.7603 52.9824 47.5022 50.0455 50.4391C47.1086 53.376 43.3668 55.376 39.2932 56.1863C35.2196 56.9966 30.9972 56.5807 27.1599 54.9913C23.3227 53.4019 20.0429 50.7102 17.7354 47.2568C15.4279 43.8034 14.1963 39.7432 14.1963 35.5898C14.1963 32.8321 14.7394 30.1013 15.7948 27.5535C16.8501 25.0056 18.3969 22.6906 20.347 20.7405C22.297 18.7905 24.612 17.2437 27.1599 16.1883C29.7077 15.133 32.4385 14.5898 35.1963 14.5898" fill="#FFDD67"/>
	<path fill-rule="evenodd" clip-rule="evenodd" d="M37.89 27.5209C37.0427 27.9008 36.1247 28.0971 35.1961 28.0971C34.2676 28.0971 33.3495 27.9008 32.5023 27.5209C30.6045 26.6034 28.5473 26.0618 26.4438 25.9258C23.1556 25.6163 19.8388 25.845 16.6242 26.6031C16.3369 26.7076 16.0567 26.8309 15.7855 26.9721C15.6321 27.0496 15.602 27.107 15.602 27.3951V27.7643C15.602 28.4578 15.5152 28.189 16.0116 28.4779C16.578 28.9926 17.0314 29.6192 17.343 30.3182C17.6546 31.0171 17.8177 31.7732 17.8219 32.5385C17.9011 33.7912 18.3414 34.9941 19.0894 36.002C19.8374 37.0099 20.8612 37.7798 22.0372 38.2186C24.2289 39.0364 26.6464 39.0105 28.8201 38.1458C30.0631 37.6678 31.1281 36.8176 31.8695 35.7113C33.3163 33.5857 32.8829 32.2568 33.6299 30.4284C33.7238 30.0852 33.9279 29.7823 34.2107 29.5664C34.4936 29.3505 34.8396 29.2335 35.1955 29.2335C35.5513 29.2335 35.8973 29.3505 36.1802 29.5664C36.4631 29.7823 36.6672 30.0852 36.7611 30.4284C37.5087 32.2568 37.0754 33.5857 38.5221 35.7113C39.2636 36.8171 40.3282 37.6673 41.5707 38.1458C43.7446 39.0105 46.1624 39.0364 48.3544 38.2186C49.5302 37.7795 50.5538 37.0096 51.3018 36.0017C52.0498 34.9939 52.4902 33.7911 52.5699 32.5385C52.5737 31.7733 52.7366 31.0172 53.0481 30.3182C53.3595 29.6192 53.8128 28.9925 54.3792 28.4779C54.8756 28.1899 54.7895 28.4587 54.7895 27.7643V27.3951C54.7895 27.108 54.758 27.0505 54.606 26.9721C54.3347 26.8307 54.0543 26.7074 53.7668 26.6031C50.5526 25.8452 47.2363 25.6162 43.9485 25.9249C41.845 26.0614 39.7877 26.6033 37.89 27.5209" fill="#494949"/>
	<path d="M44.0052 42.7845C41.4704 44.7057 38.377 45.7455 35.1964 45.7455C32.0158 45.7455 28.9224 44.7057 26.3876 42.7845C25.7085 42.3106 25.0961 43.131 25.5566 43.8892C26.576 45.5273 27.9961 46.8786 29.6827 47.8155C31.3693 48.7524 33.2669 49.2441 35.1963 49.2441C37.1257 49.2441 39.0233 48.7524 40.7099 47.8155C42.3966 46.8786 43.8166 45.5273 44.8361 43.8892C45.2973 43.131 44.6849 42.3115 44.0052 42.7845Z" fill="#664E27"/>
</svg>
