<svg width="71" height="71" viewBox="0 0 71 71" fill="none" xmlns="http://www.w3.org/2000/svg">
	<circle cx="35.1602" cy="35.8125" r="35" fill="#0285FD"/>
	<path d="M46.2131 35.1264C43.7553 33.3421 41.457 31.3481 39.3437 29.1667C39.0014 28.6945 38.7632 28.155 38.6449 27.5839C38.5267 27.0128 38.5312 26.4231 38.6579 25.8539C38.7847 25.2846 39.0308 24.7487 39.3802 24.2817C39.7296 23.8147 40.1742 23.4273 40.6845 23.145C43.6182 21.2733 45.099 18.2658 44.1722 16.4195C43.0659 14.2096 40.6341 14.2579 38.7668 16.6948C34.6699 22.0383 30.0726 24.3593 27.4519 28.4064C25.6756 31.1405 24.1631 34.0372 22.9349 37.0574C21.5185 40.9229 24.352 45.7094 26.8579 47.1599L31.8938 50.0755L46.2131 35.1264Z" fill="#FFDD67"/>
	<path d="M32.8568 50.2028C34.507 51.676 38.823 55.8707 38.823 55.8707C39.0726 56.0999 39.3651 56.2774 39.6836 56.3932C40.002 56.5089 40.3403 56.5605 40.6788 56.5451C41.0173 56.5296 41.3493 56.4474 41.6559 56.3032C41.9625 56.1589 42.2375 55.9555 42.4652 55.7045C42.6929 55.4536 42.8688 55.1601 42.9826 54.8409C43.0965 54.5218 43.1461 54.1833 43.1287 53.8449C43.1113 53.5065 43.0271 53.1749 42.8811 52.8692C42.735 52.5634 42.5299 52.2896 42.2777 52.0634L34.7137 45.1802C34.7137 45.1792 30.2991 47.917 32.8568 50.2028Z" fill="#FFDD67"/>
	<path d="M42.3686 52.1473C42.5773 52.3729 42.7387 52.6379 42.8435 52.9268C42.9483 53.2156 42.9941 53.5225 42.9785 53.8294C42.963 54.1363 42.8863 54.437 42.7528 54.7137C42.6193 54.9905 42.4319 55.2378 42.2014 55.4411C41.971 55.6444 41.7023 55.7995 41.411 55.8974C41.1197 55.9953 40.8118 56.034 40.5054 56.0112C40.1989 55.9884 39.9002 55.9045 39.6266 55.7646C39.3531 55.6246 39.1103 55.4314 38.9125 55.1962C36.8504 52.8599 34.4681 50.827 31.8366 49.158C29.8208 47.9026 27.7083 46.722 27.7083 46.722C25.203 45.2733 22.4828 40.9346 23.8994 37.0691C25.0912 34.0984 26.569 31.2505 28.3119 28.5658C30.9326 24.5169 35.4831 21.9413 39.5785 16.598C39.9062 16.0794 40.3632 15.6549 40.9046 15.3664C41.4459 15.0778 42.053 14.9351 42.6662 14.9522C41.9156 14.7823 41.1303 14.8599 40.4275 15.1735C39.7248 15.4871 39.1424 16.0197 38.7676 16.6919C34.6709 22.0352 30.0727 24.3574 27.452 28.4042C25.6754 31.1381 24.1629 34.0348 22.9352 37.0552C21.5181 40.9217 24.3516 45.7081 26.8575 47.1597L31.4318 49.8061C34.0711 51.5553 36.5007 53.6018 38.6731 55.9053C38.9124 56.18 39.2059 56.4022 39.5351 56.5581C39.8643 56.714 40.2223 56.8001 40.5864 56.8111C40.9505 56.8221 41.3129 56.7577 41.6509 56.622C41.9889 56.4862 42.2953 56.2821 42.5507 56.0224C42.8061 55.7627 43.0051 55.4529 43.1351 55.1127C43.2652 54.7724 43.3234 54.4089 43.3063 54.0451C43.2892 53.6812 43.1971 53.3248 43.0358 52.9982C42.8744 52.6717 42.6473 52.382 42.3686 52.1473V52.1473Z" fill="#EBA352"/>
	<path d="M39.1425 28.9579C47.182 33.4445 47.789 36.6098 47.763 38.4504C47.7154 41.9039 42.9738 41.9778 42.1371 39.013L41.7464 34.8711C41.4034 31.4341 36.1317 27.2777 39.1425 28.9579Z" fill="#FFDD67"/>
	<path d="M28.8674 35.4459C30.3109 36.3037 32.0237 36.5889 33.6673 36.2451C35.3109 35.9012 36.7658 34.9534 37.7444 33.5889C37.6218 34.0155 37.4453 34.4248 37.2191 34.8068C36.4968 36.0206 35.322 36.8978 33.9531 37.2457C32.5842 37.5936 31.1332 37.3838 29.919 36.6622C29.2192 36.2424 28.6277 35.664 28.1924 34.9737C28.4066 35.1459 28.6321 35.3037 28.8674 35.4459Z" fill="#EBA352"/>
	<path d="M38.5557 42.8009L36.0693 43.037L34.1403 41.4379C31.8577 39.5635 28.7909 43.3196 31.0743 45.1922L33.8126 47.4641C34.0396 47.666 34.3081 47.8156 34.5992 47.9022C34.8903 47.9889 35.1969 48.0106 35.4973 47.9657L39.0367 47.6311C39.633 47.5153 40.1645 47.1809 40.5272 46.6936C40.8899 46.2064 41.0576 45.6012 40.9974 44.9968C40.9372 44.3924 40.6535 43.8322 40.2019 43.426C39.7502 43.0198 39.1631 42.7969 38.5557 42.8009Z" fill="#FFDD67"/>
	<path d="M39.42 47.1239L35.8822 47.4594C35.5816 47.5042 35.2749 47.4824 34.9836 47.3957C34.6924 47.3089 34.4238 47.1592 34.1967 46.9571L31.4577 44.6862C31.0292 44.3406 30.7476 43.8454 30.6697 43.3004C30.5919 42.7554 30.7237 42.2012 31.0383 41.7495C30.7938 41.9655 30.5985 42.2314 30.4656 42.5293C30.3328 42.8273 30.2654 43.1503 30.2681 43.4765C30.2709 43.8027 30.3435 44.1245 30.4814 44.4201C30.6192 44.7158 30.8189 44.9784 31.067 45.1903L33.8061 47.4603C34.0327 47.6625 34.3011 47.8123 34.5921 47.8991C34.8831 47.9859 35.1895 48.0076 35.4898 47.9626L39.0287 47.6273C39.3709 47.6039 39.7018 47.495 39.9911 47.3107C40.2804 47.1264 40.5188 46.8726 40.6847 46.5723C40.3368 46.8927 39.8915 47.087 39.42 47.1239V47.1239Z" fill="#EBA352"/>
	<path d="M41.6783 38.6421L38.7755 38.9175L36.5229 37.0494C33.8566 34.8613 30.2758 39.2485 32.9413 41.4355L36.14 44.0876C36.4049 44.3236 36.7184 44.4985 37.0584 44.6C37.3984 44.7014 37.7564 44.727 38.1073 44.6748L42.2392 44.282C45.668 43.9391 45.1063 38.2995 41.6783 38.6421Z" fill="#FFDD67"/>
	<path d="M42.6882 43.6893L38.5559 44.0822C38.205 44.1344 37.8469 44.109 37.507 44.0077C37.167 43.9065 36.8534 43.7318 36.5883 43.496L33.3899 40.843C32.8891 40.4396 32.5599 39.8612 32.469 39.2246C32.378 38.588 32.532 37.9406 32.8997 37.4131C32.6143 37.6654 32.3862 37.976 32.2311 38.324C32.076 38.672 31.9974 39.0492 32.0006 39.4301C32.0038 39.8111 32.0887 40.187 32.2496 40.5323C32.4105 40.8777 32.6437 41.1844 32.9334 41.4319L36.1318 44.084C36.397 44.3196 36.7106 44.4941 37.0505 44.5952C37.3905 44.6963 37.7485 44.7216 38.0993 44.6693L42.2317 44.2782C42.6312 44.2505 43.0175 44.1232 43.3552 43.9078C43.6929 43.6925 43.9712 43.3961 44.1649 43.0455C43.7586 43.4194 43.2386 43.646 42.6882 43.6893Z" fill="#EBA352"/>
	<path d="M44.8136 35.6202L41.9108 35.8956L39.6583 34.0275C36.992 31.8394 33.4107 36.2255 36.0769 38.4127L39.2746 41.0657C39.5397 41.3014 39.8533 41.4759 40.1933 41.5771C40.5333 41.6782 40.8914 41.7034 41.2422 41.651L45.374 41.2599C48.8034 40.9161 48.2425 35.2774 44.8136 35.6202Z" fill="#FFDD67"/>
	<path d="M42.2486 36.3162C43.0072 35.885 43.8837 35.7071 44.7504 35.8086C43.9399 35.4454 43.026 35.3845 42.1744 35.6371C42.1744 35.6371 39.4122 32.4016 36.9097 33.7271C39.5571 33.1318 42.2486 36.3162 42.2486 36.3162Z" fill="#EBA352"/>
	<path d="M45.8228 40.6671L41.6903 41.0592C41.3395 41.1115 40.9815 41.0863 40.6415 40.9851C40.3016 40.884 39.988 40.7094 39.7229 40.4738L36.5252 37.8208C36.0245 37.4174 35.6953 36.8391 35.6043 36.2025C35.5134 35.566 35.6674 34.9186 36.0351 34.3911C35.7496 34.6433 35.5215 34.9538 35.3664 35.3017C35.2112 35.6496 35.1326 36.0267 35.1358 36.4076C35.139 36.7885 35.2239 37.1643 35.3848 37.5095C35.5458 37.8548 35.779 38.1615 36.0687 38.4088L39.2672 41.0611C39.532 41.2971 39.8456 41.472 40.1856 41.5733C40.5256 41.6746 40.8836 41.6998 41.2345 41.6472L45.367 41.2553C45.7667 41.2276 46.153 41.1003 46.4908 40.885C46.8286 40.6697 47.1071 40.3732 47.3008 40.0226C46.8946 40.3974 46.3739 40.6245 45.8228 40.6671Z" fill="#EBA352"/>
</svg>
