<svg width="140" height="25" viewBox="0 0 141 26" fill="none" xmlns="http://www.w3.org/2000/svg">
	<path fill-rule="evenodd" clip-rule="evenodd" d="M8.851 8.26465C3.99846 8.26465 0.0646973 12.0935 0.0646973 16.8167C0.0646973 21.5398 3.99846 25.3687 8.851 25.3687H23.612C28.4645 25.3687 32.3983 21.5398 32.3983 16.8167C32.3983 12.0935 28.4645 8.26465 23.612 8.26465H8.851ZM18.692 10.2568C15.0041 10.2568 12.0144 13.194 12.0144 16.8173C12.0144 20.4405 15.0041 23.3777 18.692 23.3777H22.9094C26.5974 23.3777 29.587 20.4405 29.587 16.8173C29.587 13.194 26.5974 10.2568 22.9094 10.2568H18.692Z" fill="url(#paint0_linear_220_1068)"/>
	<path d="M44.3955 12.2098C43.9369 12.3945 43.5208 12.6737 43.1731 13.0299C42.8133 13.4408 42.5263 13.9121 42.3246 14.423C42.0991 15.0205 41.9905 15.6571 42.0049 16.2971C41.9839 16.9368 42.0864 17.5745 42.3066 18.1739C42.5014 18.6885 42.7843 19.1637 43.1421 19.5775C43.4936 19.9499 43.9168 20.2443 44.3851 20.4423C44.8715 20.6369 45.3893 20.7368 45.9118 20.7367C46.3803 20.7425 46.8456 20.6587 47.2838 20.4896C47.6702 20.3544 48.0306 20.1516 48.3488 19.8903C48.6291 19.6516 48.8635 19.362 49.0399 19.036C49.1361 18.8752 49.2222 18.7084 49.2978 18.5366C49.3473 18.4245 49.4361 18.3353 49.5468 18.2866C49.6576 18.238 49.7822 18.2334 49.8961 18.2738L52.6581 19.2279C52.7796 19.2693 52.8801 19.3581 52.9376 19.4748C52.9951 19.5916 53.005 19.7268 52.9649 19.8509C52.7932 20.3545 52.5629 20.8355 52.279 21.2834C51.87 21.9223 51.3613 22.4888 50.7729 22.9604C50.1353 23.4868 49.4164 23.9016 48.6454 24.1879C47.7581 24.4905 46.8267 24.6372 45.8912 24.6216C44.8117 24.6318 43.7426 24.4068 42.7553 23.9618C41.79 23.5686 40.9127 22.9803 40.1765 22.2323C39.4378 21.475 38.8548 20.5751 38.4615 19.5854C38.0464 18.5341 37.8404 17.4092 37.8555 16.2761C37.8536 15.1324 38.0708 13.9993 38.4951 12.9405C38.8759 11.9637 39.4477 11.0759 40.1757 10.3313C40.9036 9.58659 41.7725 9.00057 42.7295 8.60879C43.7199 8.19961 44.7814 7.99932 45.8499 8.02001C46.8035 8.01742 47.7511 8.17277 48.6557 8.48C49.4169 8.77545 50.1299 9.18665 50.7704 9.69962C51.3529 10.1689 51.8467 10.7425 52.2274 11.3924C52.5036 11.8562 52.7285 12.3499 52.8979 12.8643C52.9369 12.9881 52.9263 13.1225 52.8683 13.2383C52.8103 13.354 52.7097 13.4417 52.5884 13.482L49.7517 14.4335C49.6336 14.4723 49.5054 14.4638 49.3932 14.4096C49.2811 14.3553 49.1935 14.2596 49.1483 14.1418C48.9393 13.6281 48.6326 13.1617 48.2457 12.7697C47.7299 12.2256 46.9408 11.9365 45.9118 11.9312C45.3937 11.9262 44.8793 12.0207 44.3955 12.2098Z" fill="white"/>
	<path d="M54.1614 23.6853L54.2723 1.65853C54.2726 1.59363 54.2855 1.52944 54.3102 1.46962C54.3348 1.4098 54.3708 1.35552 54.4161 1.30987C54.4614 1.26423 54.515 1.22812 54.5739 1.20361C54.6329 1.17909 54.696 1.16665 54.7597 1.167L57.9394 1.18277C58.0675 1.18483 58.1898 1.238 58.28 1.33087C58.3701 1.42374 58.421 1.54891 58.4216 1.67956L58.3855 8.73706C58.3845 8.82687 58.4075 8.91526 58.4523 8.99264C58.497 9.07001 58.5617 9.13341 58.6394 9.17595C58.717 9.21848 58.8045 9.23853 58.8925 9.2339C58.9805 9.22928 59.0656 9.20017 59.1385 9.14973C59.4902 8.89578 59.8793 8.70058 60.2913 8.57146C61.0124 8.30594 61.7733 8.16987 62.54 8.1693C63.4188 8.14957 64.2908 8.32913 65.0931 8.695C65.7748 8.98779 66.3811 9.43674 66.865 10.007C67.3489 10.5773 67.6974 11.2535 67.8834 11.9832C68.1076 12.7689 68.2196 13.5833 68.2161 14.4015L68.1671 23.7615C68.1671 23.8263 68.1545 23.8904 68.1301 23.9502C68.1057 24.01 68.07 24.0643 68.0249 24.11C67.9799 24.1557 67.9264 24.1918 67.8676 24.2164C67.8088 24.2409 67.7458 24.2534 67.6822 24.2531L64.5025 24.2373C64.4389 24.2369 64.3759 24.2238 64.3172 24.1987C64.2585 24.1735 64.2052 24.1368 64.1605 24.0907C64.1157 24.0446 64.0803 23.9899 64.0562 23.9298C64.0322 23.8697 64.0199 23.8054 64.0203 23.7405L64.0641 15.1112C64.0937 14.3164 63.8673 13.5335 63.4194 12.8822C62.9552 12.275 62.2383 11.9859 61.2403 11.9806C60.8533 11.957 60.4661 12.0241 60.1084 12.1767C59.7508 12.3294 59.4323 12.5635 59.1772 12.8612C58.6615 13.4576 58.3708 14.2216 58.3572 15.0165L58.3133 23.7116C58.312 23.8424 58.26 23.9674 58.1687 24.0595C58.0775 24.1515 57.9543 24.2031 57.8259 24.2031L54.6436 24.1821C54.58 24.1817 54.517 24.1686 54.4583 24.1435C54.3996 24.1183 54.3463 24.0816 54.3016 24.0355C54.2568 23.9894 54.2214 23.9347 54.1973 23.8746C54.1732 23.8145 54.161 23.7502 54.1614 23.6853V23.6853Z" fill="white"/>
	<path d="M80.7158 8.80638C81.6682 9.2084 82.5345 9.79588 83.2663 10.5359C83.9906 11.2961 84.5587 12.196 84.9374 13.1828C85.3394 14.248 85.5347 15.3826 85.5125 16.5236C85.5275 17.6553 85.3206 18.7786 84.9039 19.8277C84.5164 20.8113 83.9384 21.7053 83.2044 22.4562C82.022 23.585 80.5458 24.343 78.952 24.6394C77.3583 24.9359 75.7145 24.7583 74.2171 24.1279C73.2655 23.7246 72.4001 23.1363 71.6692 22.3957C70.9427 21.6374 70.3742 20.737 69.9981 19.7488C69.5909 18.696 69.3945 17.5709 69.4205 16.4395C69.4095 15.2986 69.6171 14.1665 70.0317 13.1066C70.4177 12.1228 70.9949 11.2288 71.7286 10.4781C72.4665 9.74493 73.3382 9.16626 74.2945 8.77484C76.3672 7.98141 78.6539 7.99357 80.7184 8.80901L80.7158 8.80638ZM78.9106 20.653C79.3857 20.4698 79.8135 20.1786 80.1614 19.8014C80.5292 19.4082 80.8182 18.9457 81.0124 18.4398C81.2501 17.823 81.3692 17.1653 81.3631 16.5026C81.377 15.8401 81.264 15.1812 81.0304 14.5628C80.8419 14.0545 80.5581 13.5885 80.1949 13.1907C79.8497 12.8107 79.4248 12.5151 78.9519 12.3259C78.0132 11.9395 76.965 11.9339 76.0223 12.3102C75.5489 12.4966 75.1218 12.7874 74.7716 13.1618C74.4032 13.555 74.1148 14.0186 73.9231 14.526C73.4591 15.7738 73.4518 17.1502 73.9025 18.403C74.0904 18.9104 74.3724 19.3762 74.7329 19.7751C75.0794 20.1535 75.5039 20.4488 75.9759 20.6399C76.9161 21.0242 77.9646 21.0289 78.908 20.653H78.9106Z" fill="white"/>
	<path d="M87.2091 1.71884C87.443 1.47339 87.724 1.27972 88.0346 1.14993C88.3452 1.02013 88.6787 0.956996 89.0143 0.96446C89.3558 0.959256 89.6948 1.0251 90.0105 1.15797C90.3262 1.29085 90.612 1.48795 90.8504 1.73724C91.3179 2.24549 91.5715 2.9201 91.5571 3.61661C91.559 3.95916 91.493 4.29858 91.3633 4.61457C91.2335 4.93056 91.0425 5.21661 90.8018 5.45563C90.561 5.69464 90.2754 5.8817 89.9621 6.0056C89.6488 6.12951 89.3141 6.18772 88.9782 6.17676C88.6415 6.18219 88.3073 6.11658 87.9966 5.98404C87.686 5.8515 87.4056 5.65491 87.173 5.40661C86.9382 5.17009 86.753 4.88731 86.6289 4.5755C86.5048 4.26369 86.4442 3.92939 86.4509 3.59295C86.4452 3.24437 86.5095 2.89828 86.6399 2.57597C86.7703 2.25366 86.964 1.96197 87.2091 1.71884V1.71884ZM87.4077 8.71325L90.5874 8.72903C90.6511 8.72937 90.7141 8.74249 90.7727 8.76765C90.8314 8.7928 90.8847 8.82949 90.9295 8.87562C90.9743 8.92175 91.0097 8.97642 91.0337 9.0365C91.0578 9.09659 91.07 9.16092 91.0697 9.22581L90.9949 23.877C90.9922 24.0065 90.9394 24.1296 90.8482 24.2197C90.7569 24.3097 90.6345 24.3595 90.5075 24.358H87.3303C87.2666 24.3574 87.2036 24.3438 87.145 24.3181C87.0864 24.2925 87.0334 24.2552 86.989 24.2085C86.9446 24.1618 86.9098 24.1066 86.8865 24.0461C86.8632 23.9856 86.8519 23.921 86.8532 23.856L86.9255 9.20478C86.9261 9.07463 86.9772 8.95001 87.0674 8.85798C87.1577 8.76595 87.28 8.71395 87.4077 8.71325V8.71325Z" fill="white"/>
	<path d="M96.5941 20.9032C97.0609 21.3816 97.7443 21.6392 98.6572 21.6444C99.1993 21.682 99.7373 21.5259 100.179 21.2028C100.339 21.0673 100.468 20.8978 100.557 20.7062C100.646 20.5146 100.693 20.3056 100.694 20.0936C100.697 19.922 100.666 19.7517 100.603 19.5927C100.539 19.4337 100.445 19.2894 100.326 19.1684C100.068 18.8819 99.6423 18.6874 99.0491 18.5586L97.0144 18.0749C95.5187 17.7175 94.4356 17.1418 93.747 16.3112C93.0761 15.4893 92.7165 14.4495 92.7336 13.3805C92.7365 12.6985 92.8889 12.0259 93.1797 11.4117C93.4586 10.7835 93.8782 10.2308 94.4046 9.79782C94.9308 9.31443 95.5438 8.93953 96.2098 8.69385C96.9359 8.40984 97.7095 8.27322 98.487 8.29169C99.4243 8.27142 100.356 8.4384 101.231 8.78322C101.915 9.03198 102.54 9.42519 103.064 9.93713C103.503 10.3625 103.853 10.8727 104.096 11.438C104.223 11.7299 104.328 12.0313 104.411 12.3396C104.426 12.4036 104.428 12.4702 104.418 12.5352C104.408 12.6003 104.384 12.6626 104.35 12.7184C104.316 12.7743 104.271 12.8225 104.218 12.8604C104.165 12.8983 104.105 12.9249 104.042 12.9389L101.502 13.5092C101.382 13.5363 101.257 13.516 101.152 13.4526C101.046 13.3891 100.969 13.2872 100.934 13.1675C100.909 13.0782 100.879 12.9904 100.844 12.9047C100.743 12.6382 100.584 12.3984 100.38 12.2029C100.16 11.9787 99.8964 11.8041 99.6062 11.6903C99.2594 11.55 98.8883 11.4829 98.5153 11.4932C98.0222 11.4812 97.539 11.6355 97.1408 11.9322C96.954 12.0503 96.8004 12.2158 96.6951 12.4125C96.5898 12.6093 96.5363 12.8304 96.5399 13.0545C96.5295 13.2299 96.5606 13.4053 96.6307 13.5658C96.7007 13.7264 96.8075 13.8675 96.9422 13.9771C97.2328 14.2173 97.5761 14.3823 97.9428 14.4581L100.122 14.9444C101.649 15.2703 102.768 15.8801 103.513 16.7423C104.264 17.5624 104.671 18.6489 104.648 19.7703C104.643 20.4139 104.512 21.0501 104.264 21.6418C104.028 22.2711 103.65 22.8355 103.162 23.2899C102.622 23.8007 101.987 24.1973 101.295 24.4569C99.4837 25.0616 97.525 25.0264 95.7353 24.357C95.0323 24.0544 94.3838 23.6342 93.8167 23.1138C93.3441 22.6703 92.9741 22.1254 92.7336 21.5183C92.5845 21.1989 92.467 20.8652 92.3828 20.5221C92.3677 20.458 92.3653 20.3914 92.3759 20.3264C92.3865 20.2614 92.4098 20.1992 92.4444 20.1435C92.4791 20.0878 92.5243 20.0398 92.5776 20.0024C92.6308 19.9649 92.6908 19.9387 92.7542 19.9254L95.364 19.3629C95.4859 19.3359 95.6134 19.3584 95.7193 19.4257C95.8252 19.4929 95.9013 19.5996 95.9313 19.723C96.0452 20.1695 96.274 20.5769 96.5941 20.9032V20.9032Z" fill="white"/>
	<path d="M119.169 21.9763C118.758 22.5762 118.25 23.0999 117.666 23.5245C117.044 23.9811 116.359 24.3416 115.633 24.5943C114.794 24.8535 113.919 24.9776 113.042 24.9623C112.01 24.9566 110.988 24.7689 110.019 24.4077C109.074 24.0402 108.216 23.4722 107.502 22.7412C106.76 21.9895 106.18 21.0879 105.8 20.0943C105.355 18.9731 105.138 17.7711 105.163 16.5616C105.159 15.3972 105.376 14.2429 105.803 13.163C106.184 12.2026 106.75 11.3302 107.469 10.5976C108.167 9.89005 108.998 9.33235 109.911 8.95739C110.805 8.55814 111.772 8.35743 112.748 8.36861C115.149 8.36861 116.987 9.12036 118.321 10.5581C119.654 11.9959 120.299 14.0015 120.286 16.5143C120.29 16.8003 120.279 17.0864 120.252 17.3712V17.3712C120.238 17.4913 120.181 17.6019 120.092 17.6819C120.003 17.762 119.889 17.8057 119.77 17.8049L109.79 17.755C109.719 17.7539 109.649 17.7688 109.584 17.7986C109.519 17.8283 109.462 17.8723 109.416 17.9272C109.37 17.9822 109.336 18.0469 109.318 18.1166C109.299 18.1863 109.295 18.2594 109.308 18.3306C109.359 18.6266 109.45 18.9141 109.578 19.1849C109.793 19.6016 110.076 19.9784 110.414 20.2993C110.764 20.6263 111.17 20.8863 111.61 21.0669L111.659 21.0853C112.122 21.253 112.608 21.3418 113.098 21.3481C114.066 21.3481 114.847 21.1352 115.378 20.691C115.828 20.3431 116.193 19.8932 116.443 19.3767C116.492 19.2701 116.576 19.1848 116.681 19.1366C116.787 19.0883 116.905 19.0802 117.016 19.1139L119.595 19.9024C119.658 19.9214 119.716 19.9533 119.767 19.9962C119.817 20.0391 119.859 20.0921 119.889 20.1519C119.918 20.2118 119.936 20.2772 119.94 20.3441C119.944 20.411 119.934 20.4781 119.912 20.5412C119.726 21.0501 119.476 21.5325 119.169 21.9763V21.9763ZM115.969 13.7886C115.842 13.4114 115.63 13.07 115.35 12.7924C115.053 12.4801 114.692 12.2394 114.292 12.0879C113.821 11.88 113.31 11.7795 112.797 11.7935C112.301 11.7821 111.808 11.8798 111.353 12.08C110.96 12.2582 110.599 12.5035 110.288 12.8055C110.013 13.0913 109.789 13.424 109.627 13.7886C109.56 13.9373 109.504 14.0911 109.46 14.2485C109.44 14.3216 109.438 14.3981 109.452 14.4724C109.466 14.5466 109.497 14.6164 109.542 14.6765C109.588 14.7365 109.646 14.7851 109.712 14.8185C109.779 14.8518 109.852 14.8691 109.927 14.8689L115.644 14.9004C115.717 14.9004 115.79 14.8835 115.856 14.8509C115.922 14.8183 115.98 14.771 116.026 14.7123C116.071 14.6537 116.103 14.5853 116.119 14.5123C116.135 14.4393 116.135 14.3635 116.118 14.2906C116.085 14.1186 116.035 13.9505 115.969 13.7886V13.7886Z" fill="white"/>
	<path d="M124.941 9.67697C124.801 9.73463 124.675 9.82181 124.569 9.93306C124.46 10.0614 124.373 10.2085 124.311 10.3681C124.243 10.5547 124.21 10.7535 124.214 10.9533C124.208 11.1531 124.239 11.3522 124.306 11.5394C124.365 11.7009 124.451 11.8502 124.56 11.9801C124.666 12.0967 124.795 12.1886 124.938 12.2502C125.085 12.3113 125.243 12.3425 125.401 12.3421C125.544 12.3443 125.685 12.3182 125.818 12.2649C125.936 12.2229 126.045 12.1596 126.142 12.0778C126.227 12.0033 126.298 11.9128 126.352 11.811C126.381 11.7608 126.407 11.7087 126.43 11.6551C126.445 11.6202 126.472 11.5925 126.506 11.5773C126.54 11.5621 126.577 11.5606 126.612 11.573L127.451 11.871C127.487 11.8844 127.516 11.9118 127.533 11.9474C127.55 11.9831 127.553 12.0242 127.542 12.0622C127.49 12.2196 127.42 12.3698 127.334 12.5095C127.209 12.7091 127.055 12.886 126.876 13.0332C126.682 13.1976 126.464 13.3273 126.23 13.4173C125.961 13.5106 125.678 13.5558 125.395 13.5511C125.067 13.5552 124.742 13.4856 124.442 13.3468C124.149 13.224 123.882 13.0403 123.659 12.8067C123.434 12.5703 123.257 12.2893 123.138 11.9801C123.012 11.6519 122.949 11.3006 122.954 10.9467C122.953 10.5896 123.019 10.2358 123.148 9.90515C123.264 9.6001 123.437 9.32289 123.659 9.09035C123.88 8.85781 124.144 8.67482 124.434 8.55248C124.735 8.4247 125.058 8.36216 125.383 8.36862C125.672 8.36781 125.96 8.41632 126.235 8.51226C126.466 8.60485 126.683 8.73323 126.878 8.89311C127.055 9.03966 127.205 9.21878 127.32 9.4217C127.404 9.56671 127.473 9.72083 127.525 9.88135C127.536 9.9201 127.533 9.96199 127.515 9.99804C127.497 10.0341 127.467 10.0614 127.43 10.0742L126.568 10.3714C126.532 10.3835 126.493 10.3808 126.459 10.3639C126.425 10.347 126.398 10.317 126.385 10.2803C126.321 10.1199 126.228 9.97422 126.11 9.8518C125.954 9.68189 125.714 9.59161 125.401 9.58997C125.244 9.58841 125.088 9.61792 124.941 9.67697V9.67697Z" fill="white"/>
	<path d="M131.068 8.58683C131.357 8.71268 131.62 8.8961 131.842 9.12691C132.062 9.364 132.235 9.64508 132.35 9.95346C132.472 10.2852 132.531 10.6387 132.524 10.9942C132.529 11.3476 132.466 11.6984 132.34 12.026C132.222 12.3331 132.047 12.6122 131.824 12.8468C131.6 13.0754 131.335 13.256 131.044 13.3786C130.735 13.5143 130.402 13.5803 130.067 13.5724C129.732 13.5787 129.4 13.5113 129.092 13.3745C128.803 13.2487 128.54 13.0653 128.318 12.8345C128.097 12.5961 127.925 12.3136 127.811 12.0038C127.688 11.675 127.629 11.3236 127.637 10.9704C127.632 10.6135 127.695 10.2591 127.82 9.92719C127.938 9.62025 128.113 9.34116 128.336 9.10639C128.562 8.87789 128.828 8.69728 129.119 8.57452C129.749 8.327 130.444 8.3308 131.072 8.58519L131.068 8.58683ZM130.519 12.287C130.664 12.229 130.794 12.1378 130.9 12.0202C131.011 11.8973 131.099 11.7529 131.158 11.5951C131.23 11.4037 131.266 11.1998 131.265 10.9942C131.268 10.7873 131.234 10.5816 131.163 10.3885C131.106 10.2298 131.02 10.0843 130.91 9.96002C130.804 9.84152 130.675 9.74924 130.531 9.68998C130.246 9.56775 129.928 9.56452 129.641 9.68095C129.497 9.73894 129.367 9.82978 129.26 9.94689C129.149 10.07 129.061 10.2147 129.002 10.3729C128.93 10.5654 128.893 10.7708 128.895 10.9778C128.892 11.1846 128.926 11.3902 128.996 11.5836C129.054 11.7421 129.14 11.8876 129.25 12.012C129.355 12.1303 129.484 12.2225 129.628 12.2821C129.769 12.3418 129.92 12.373 130.073 12.374C130.225 12.3743 130.376 12.3448 130.519 12.287H130.519Z" fill="white"/>
	<path d="M133.101 8.55987L134.01 8.5648C134.03 8.56469 134.049 8.56863 134.067 8.57639C134.085 8.58414 134.101 8.59557 134.115 8.60999C134.129 8.62442 134.14 8.64156 134.147 8.66044C134.154 8.67931 134.158 8.69953 134.158 8.71993V8.73142C134.158 8.76075 134.166 8.78944 134.182 8.81408C134.197 8.83872 134.218 8.85829 134.244 8.87047C134.269 8.88264 134.298 8.88692 134.325 8.88279C134.353 8.87866 134.379 8.86629 134.4 8.84715V8.84715C134.505 8.75527 134.621 8.67751 134.744 8.61569C134.869 8.55371 135.001 8.50769 135.136 8.47862C135.265 8.44898 135.396 8.43303 135.528 8.43101C135.821 8.42496 136.112 8.49847 136.37 8.64442C136.542 8.74466 136.689 8.88513 136.799 9.05482C136.812 9.07475 136.829 9.0913 136.849 9.10313C136.869 9.11495 136.891 9.12174 136.914 9.12294C136.937 9.12413 136.96 9.11971 136.981 9.11002C137.002 9.10033 137.02 9.08564 137.035 9.06713C137.173 8.88095 137.351 8.73139 137.555 8.63046C137.814 8.50388 138.098 8.4426 138.384 8.45153C138.597 8.45299 138.809 8.49098 139.011 8.56398C139.21 8.63396 139.393 8.74568 139.549 8.8923C139.716 9.05542 139.844 9.25649 139.925 9.47999C140.025 9.74534 140.073 10.0295 140.064 10.3147L140.049 13.3271C140.048 13.3679 140.033 13.407 140.005 13.4357C139.977 13.4644 139.94 13.4806 139.901 13.4806L138.973 13.4756C138.954 13.4755 138.935 13.4714 138.917 13.4636C138.899 13.4557 138.883 13.4443 138.869 13.4299C138.855 13.4155 138.845 13.3984 138.837 13.3796C138.83 13.3609 138.826 13.3408 138.827 13.3205L138.84 10.5758C138.849 10.3412 138.784 10.1101 138.653 9.91912C138.522 9.73936 138.313 9.64907 138.019 9.64743C137.9 9.64072 137.78 9.66291 137.67 9.71229C137.559 9.76167 137.461 9.83692 137.383 9.93225C137.23 10.1194 137.148 10.3594 137.153 10.6061L137.14 13.3148C137.139 13.335 137.136 13.3551 137.128 13.3737C137.121 13.3924 137.11 13.4094 137.096 13.4236C137.082 13.4379 137.066 13.4492 137.048 13.4568C137.03 13.4645 137.011 13.4684 136.991 13.4682L136.033 13.4584C135.994 13.4582 135.957 13.4418 135.93 13.4129C135.902 13.384 135.887 13.3449 135.887 13.3041L135.901 10.5593C135.91 10.3203 135.841 10.0852 135.705 9.89285C135.573 9.72377 135.365 9.63348 135.078 9.63184C134.791 9.6302 134.585 9.71884 134.432 9.90598C134.279 10.0968 134.197 10.34 134.202 10.5897L134.189 13.2983C134.189 13.3186 134.185 13.3387 134.177 13.3573C134.17 13.376 134.159 13.393 134.145 13.4072C134.131 13.4215 134.115 13.4327 134.097 13.4404C134.079 13.4481 134.06 13.4519 134.041 13.4518L133.075 13.4469C133.055 13.4468 133.036 13.4427 133.018 13.4348C133 13.427 132.984 13.4155 132.971 13.4011C132.957 13.3867 132.946 13.3697 132.939 13.3509C132.932 13.3321 132.928 13.312 132.928 13.2918L132.951 8.71665C132.95 8.69587 132.954 8.67521 132.961 8.65593C132.969 8.63665 132.98 8.61915 132.994 8.60449C133.008 8.58983 133.025 8.57832 133.043 8.57065C133.062 8.56298 133.081 8.55931 133.101 8.55987V8.55987Z" fill="white"/>
	<defs>
		<linearGradient id="paint0_linear_220_1068" x1="32.3983" y1="16.8167" x2="3.85609" y2="27.2193" gradientUnits="userSpaceOnUse">
			<stop stop-color="#5CEE9C"/>
			<stop offset="0.582146" stop-color="#FFFB1F"/>
		</linearGradient>
	</defs>
</svg>
