<svg width="140" height="25" viewBox="0 0 140 25" fill="none" xmlns="http://www.w3.org/2000/svg">
    <path d="M0 15.8528C0 11.1296 3.93376 7.30078 8.78631 7.30078H23.5473C28.3998 7.30078 32.3336 11.1296 32.3336 15.8528V15.8528C32.3336 20.5759 28.3998 24.4048 23.5473 24.4048H8.78631C3.93376 24.4048 0 20.5759 0 15.8528V15.8528Z" fill="#191B20"/>
    <path d="M11.9497 15.8534C11.9497 12.2302 14.9394 9.29297 18.6273 9.29297H22.8447C26.5327 9.29297 29.5223 12.2302 29.5223 15.8534V15.8534C29.5223 19.4766 26.5327 22.4139 22.8447 22.4139H18.6273C14.9394 22.4139 11.9497 19.4766 11.9497 15.8534V15.8534Z" fill="url(#paint0_linear_134_673)"/>
    <path d="M44.3309 11.246C43.8724 11.4306 43.4562 11.7098 43.1085 12.066C42.7488 12.4769 42.4617 12.9483 42.2601 13.4591C42.0346 14.0566 41.9259 14.6933 41.9403 15.3333C41.9193 15.9729 42.0218 16.6106 42.242 17.21C42.4368 17.7246 42.7197 18.1998 43.0776 18.6136C43.4291 18.986 43.8522 19.2804 44.3206 19.4784C44.8069 19.673 45.3248 19.7729 45.8472 19.7728C46.3157 19.7786 46.7811 19.6948 47.2192 19.5257C47.6057 19.3905 47.9661 19.1877 48.2842 18.9264C48.5646 18.6878 48.7989 18.3981 48.9754 18.0722C49.0715 17.9114 49.1577 17.7446 49.2333 17.5727C49.2827 17.4606 49.3715 17.3714 49.4823 17.3228C49.593 17.2741 49.7176 17.2695 49.8315 17.3099L52.5935 18.264C52.715 18.3054 52.8155 18.3942 52.8731 18.511C52.9306 18.6277 52.9404 18.7629 52.9004 18.887C52.7286 19.3907 52.4983 19.8716 52.2144 20.3195C51.8054 20.9585 51.2967 21.5249 50.7084 21.9965C50.0708 22.5229 49.3518 22.9377 48.5808 23.224C47.6935 23.5267 46.7622 23.6733 45.8266 23.6577C44.7471 23.6679 43.678 23.443 42.6907 22.9979C41.7254 22.6048 40.8482 22.0164 40.1119 21.2684C39.3733 20.5111 38.7903 19.6112 38.397 18.6215C37.9818 17.5702 37.7758 16.4454 37.7909 15.3122C37.789 14.1685 38.0062 13.0355 38.4305 11.9767C38.8114 10.9998 39.3832 10.112 40.1111 9.36739C40.839 8.62273 41.7079 8.0367 42.6649 7.64492C43.6554 7.23574 44.7169 7.03545 45.7853 7.05614C46.7389 7.05355 47.6865 7.2089 48.5911 7.51613C49.3523 7.81159 50.0653 8.22278 50.7058 8.73575C51.2884 9.20505 51.7821 9.77868 52.1628 10.4285C52.439 10.8924 52.6639 11.386 52.8333 11.9005C52.8723 12.0242 52.8617 12.1587 52.8037 12.2744C52.7457 12.3902 52.6451 12.4778 52.5239 12.5181L49.6871 13.4697C49.569 13.5085 49.4408 13.4999 49.3287 13.4457C49.2165 13.3915 49.1289 13.2957 49.0837 13.1779C48.8748 12.6642 48.568 12.1979 48.1811 11.8058C47.6653 11.2617 46.8762 10.9726 45.8472 10.9673C45.3291 10.9623 44.8147 11.0569 44.3309 11.246Z" fill="#191B20"/>
    <path d="M54.0968 22.7214L54.2077 0.69466C54.208 0.629766 54.2209 0.565576 54.2456 0.505754C54.2703 0.445931 54.3063 0.391649 54.3515 0.346006C54.3968 0.300364 54.4504 0.264254 54.5094 0.23974C54.5683 0.215225 54.6314 0.202786 54.6951 0.203132L57.8748 0.218903C58.003 0.220964 58.1252 0.27413 58.2154 0.366999C58.3055 0.459868 58.3564 0.585046 58.3571 0.715688L58.3209 7.77319C58.3199 7.863 58.343 7.9514 58.3877 8.02877C58.4325 8.10615 58.4972 8.16954 58.5748 8.21208C58.6524 8.25461 58.74 8.27466 58.828 8.27004C58.916 8.26542 59.0011 8.2363 59.074 8.18586C59.4256 7.93192 59.8148 7.73671 60.2267 7.6076C60.9479 7.34207 61.7087 7.206 62.4755 7.20544C63.3542 7.1857 64.2262 7.36526 65.0285 7.73113C65.7102 8.02392 66.3165 8.47287 66.8004 9.04313C67.2843 9.61339 67.6328 10.2896 67.8188 11.0194C68.043 11.805 68.1551 12.6194 68.1515 13.4376L68.1025 22.7977C68.1025 22.8624 68.0899 22.9266 68.0655 22.9864C68.0411 23.0462 68.0054 23.1005 67.9603 23.1462C67.9153 23.1918 67.8618 23.228 67.803 23.2525C67.7442 23.2771 67.6812 23.2895 67.6177 23.2892L64.438 23.2734C64.3743 23.2731 64.3113 23.2599 64.2526 23.2348C64.1939 23.2096 64.1407 23.173 64.0959 23.1268C64.0511 23.0807 64.0157 23.026 63.9916 22.9659C63.9676 22.9058 63.9554 22.8415 63.9557 22.7766L63.9996 14.1473C64.0291 13.3525 63.8027 12.5697 63.3548 11.9183C62.8907 11.3111 62.1737 11.022 61.1757 11.0168C60.7887 10.9931 60.4015 11.0602 60.0439 11.2129C59.6862 11.3655 59.3677 11.5996 59.1127 11.8973C58.5969 12.4938 58.3063 13.2578 58.2926 14.0527L58.2487 22.7477C58.2474 22.8786 58.1954 23.0036 58.1042 23.0956C58.0129 23.1876 57.8897 23.2393 57.7613 23.2392L54.5791 23.2182C54.5154 23.2179 54.4524 23.2047 54.3937 23.1796C54.335 23.1544 54.2818 23.1178 54.237 23.0716C54.1922 23.0255 54.1568 22.9708 54.1327 22.9107C54.1087 22.8506 54.0965 22.7863 54.0968 22.7214V22.7214Z" fill="#191B20"/>
    <path d="M80.6512 7.84252C81.6036 8.24453 82.47 8.83201 83.2017 9.57207C83.926 10.3322 84.4941 11.2321 84.8728 12.219C85.2748 13.2841 85.4701 14.4187 85.4479 15.5598C85.4629 16.6914 85.256 17.8147 84.8393 18.8638C84.4519 19.8475 83.8739 20.7414 83.1398 21.4923C81.9575 22.6212 80.4812 23.3791 78.8874 23.6756C77.2937 23.972 75.6499 23.7944 74.1526 23.164C73.201 22.7607 72.3355 22.1724 71.6047 21.4318C70.8781 20.6735 70.3097 19.7731 69.9336 18.7849C69.5264 17.7322 69.33 16.607 69.3559 15.4757C69.345 14.3347 69.5526 13.2026 69.9671 12.1427C70.3532 11.159 70.9304 10.2649 71.664 9.51424C72.4019 8.78106 73.2736 8.2024 74.2299 7.81098C76.3026 7.01754 78.5894 7.02971 80.6538 7.84515L80.6512 7.84252ZM78.846 19.6891C79.3211 19.506 79.7489 19.2147 80.0968 18.8375C80.4646 18.4443 80.7536 17.9819 80.9478 17.4759C81.1856 16.8591 81.3046 16.2014 81.2985 15.5387C81.3124 14.8762 81.1994 14.2173 80.9659 13.5989C80.7773 13.0906 80.4935 12.6246 80.1303 12.2268C79.7852 11.8469 79.3603 11.5512 78.8873 11.3621C77.9486 10.9757 76.9004 10.97 75.9577 11.3463C75.4843 11.5327 75.0572 11.8236 74.707 12.1979C74.3386 12.5911 74.0502 13.0547 73.8586 13.5621C73.3945 14.8099 73.3872 16.1863 73.8379 17.4391C74.0259 17.9465 74.3078 18.4124 74.6683 18.8112C75.0149 19.1896 75.4394 19.4849 75.9113 19.676C76.8515 20.0604 77.9 20.0651 78.8435 19.6891H78.846Z" fill="#191B20"/>
    <path d="M87.1445 0.75497C87.3784 0.509524 87.6594 0.315857 87.97 0.186062C88.2806 0.056266 88.6141 -0.00687115 88.9497 0.00059233C89.2913 -0.0046115 89.6302 0.0612351 89.9459 0.194107C90.2616 0.326978 90.5474 0.524082 90.7859 0.773369C91.2533 1.28163 91.507 1.95623 91.4925 2.65274C91.4944 2.99529 91.4285 3.33472 91.2987 3.6507C91.1689 3.96669 90.9779 4.25275 90.7372 4.49176C90.4964 4.73077 90.2108 4.91783 89.8975 5.04174C89.5842 5.16564 89.2495 5.22386 88.9136 5.21289C88.5769 5.21832 88.2427 5.15271 87.932 5.02017C87.6214 4.88764 87.341 4.69104 87.1084 4.44274C86.8736 4.20623 86.6885 3.92345 86.5643 3.61164C86.4402 3.29983 86.3796 2.96552 86.3864 2.62908C86.3806 2.2805 86.4449 1.93441 86.5753 1.6121C86.7057 1.2898 86.8994 0.998101 87.1445 0.75497V0.75497ZM87.3431 7.74939L90.5228 7.76516C90.5865 7.7655 90.6495 7.77863 90.7082 7.80378C90.7669 7.82893 90.8201 7.86562 90.8649 7.91175C90.9097 7.95788 90.9451 8.01255 90.9692 8.07264C90.9932 8.13272 91.0054 8.19705 91.0051 8.26194L90.9303 22.9132C90.9276 23.0426 90.8749 23.1657 90.7836 23.2558C90.6923 23.3459 90.5699 23.3956 90.4429 23.3942H87.2658C87.202 23.3935 87.139 23.3799 87.0804 23.3543C87.0218 23.3286 86.9688 23.2913 86.9244 23.2446C86.88 23.198 86.8452 23.1428 86.8219 23.0822C86.7986 23.0217 86.7873 22.9571 86.7887 22.8921L86.8609 8.24092C86.8616 8.11077 86.9126 7.98615 87.0029 7.89412C87.0932 7.80209 87.2154 7.75008 87.3431 7.74939V7.74939Z" fill="#191B20"/>
    <path d="M96.5295 19.9393C96.9963 20.4177 97.6797 20.6753 98.5926 20.6806C99.1347 20.7182 99.6727 20.562 100.114 20.239C100.274 20.1034 100.403 19.9339 100.492 19.7423C100.581 19.5508 100.628 19.3417 100.63 19.1298C100.633 18.9582 100.601 18.7878 100.538 18.6288C100.475 18.4698 100.381 18.3255 100.261 18.2045C100.003 17.918 99.5777 17.7235 98.9846 17.5947L96.9499 17.1111C95.4541 16.7536 94.371 16.178 93.6825 15.3474C93.0115 14.5255 92.6519 13.4856 92.669 12.4166C92.6719 11.7347 92.8243 11.062 93.1151 10.4478C93.3941 9.81968 93.8136 9.26693 94.3401 8.83395C94.8662 8.35056 95.4792 7.97566 96.1453 7.72998C96.8713 7.44597 97.6449 7.30936 98.4224 7.32782C99.3597 7.30755 100.292 7.47454 101.166 7.81935C101.85 8.06811 102.475 8.46133 103 8.97326C103.438 9.39862 103.789 9.90887 104.031 10.4741C104.159 10.766 104.264 11.0674 104.346 11.3757C104.361 11.4398 104.364 11.5063 104.353 11.5714C104.343 11.6364 104.32 11.6987 104.286 11.7546C104.251 11.8104 104.206 11.8587 104.153 11.8965C104.1 11.9344 104.04 11.9611 103.977 11.975L101.437 12.5454C101.318 12.5724 101.193 12.5522 101.087 12.4887C100.982 12.4253 100.904 12.3234 100.87 12.2037C100.845 12.1143 100.815 12.0266 100.779 11.9408C100.678 11.6744 100.52 11.4345 100.315 11.239C100.095 11.0148 99.8319 10.8402 99.5416 10.7265C99.1948 10.5861 98.8237 10.5191 98.4508 10.5293C97.9576 10.5173 97.4744 10.6716 97.0762 10.9683C96.8894 11.0864 96.7358 11.252 96.6305 11.4487C96.5252 11.6454 96.4717 11.8666 96.4754 12.0907C96.4649 12.266 96.4961 12.4414 96.5661 12.602C96.6361 12.7625 96.743 12.9036 96.8777 13.0133C97.1683 13.2534 97.5116 13.4185 97.8782 13.4943L100.057 13.9805C101.584 14.3065 102.703 14.9163 103.449 15.7784C104.199 16.5986 104.606 17.685 104.583 18.8064C104.578 19.4501 104.448 20.0862 104.199 20.6779C103.963 21.3073 103.586 21.8717 103.098 22.326C102.557 22.8368 101.923 23.2334 101.231 23.493C99.4191 24.0977 97.4604 24.0625 95.6708 23.3932C94.9677 23.0905 94.3193 22.6703 93.7521 22.1499C93.2795 21.7065 92.9095 21.1615 92.669 20.5544C92.5199 20.235 92.4025 19.9013 92.3183 19.5582C92.3031 19.4941 92.3007 19.4276 92.3113 19.3625C92.3219 19.2975 92.3452 19.2353 92.3798 19.1796C92.4145 19.124 92.4598 19.076 92.513 19.0385C92.5662 19.001 92.6263 18.9748 92.6896 18.9615L95.2994 18.399C95.4213 18.372 95.5488 18.3946 95.6547 18.4618C95.7607 18.529 95.8367 18.6357 95.8667 18.7591C95.9807 19.2056 96.2095 19.6131 96.5295 19.9393V19.9393Z" fill="#191B20"/>
    <path d="M119.104 21.0124C118.694 21.6123 118.185 22.136 117.601 22.5606C116.979 23.0172 116.294 23.3777 115.569 23.6304C114.729 23.8896 113.855 24.0138 112.977 23.9984C111.946 23.9927 110.923 23.8051 109.955 23.4438C109.009 23.0763 108.152 22.5083 107.438 21.7773C106.696 21.0256 106.116 20.124 105.736 19.1304C105.29 18.0092 105.073 16.8072 105.099 15.5977C105.094 14.4333 105.311 13.2791 105.738 12.1991C106.119 11.2388 106.686 10.3663 107.404 9.6337C108.103 8.92619 108.933 8.36848 109.846 7.99352C110.74 7.59428 111.707 7.39357 112.683 7.40474C115.084 7.40474 116.923 8.15649 118.256 9.59427C119.589 11.0321 120.234 13.0376 120.221 15.5504C120.225 15.8365 120.214 16.1225 120.188 16.4073V16.4073C120.174 16.5274 120.117 16.6381 120.028 16.7181C119.939 16.7981 119.824 16.8419 119.705 16.841L109.725 16.7911C109.654 16.79 109.584 16.8049 109.519 16.8347C109.455 16.8645 109.397 16.9084 109.351 16.9634C109.305 17.0184 109.272 17.083 109.253 17.1527C109.234 17.2224 109.231 17.2955 109.243 17.3667C109.294 17.6628 109.386 17.9502 109.514 18.221C109.729 18.6377 110.011 19.0145 110.349 19.3355C110.7 19.6624 111.105 19.9224 111.546 20.103L111.595 20.1214C112.057 20.2891 112.543 20.3779 113.034 20.3842C114.001 20.3842 114.782 20.1713 115.314 19.7271C115.764 19.3793 116.129 18.9293 116.379 18.4129C116.427 18.3062 116.512 18.221 116.617 18.1727C116.722 18.1244 116.841 18.1164 116.951 18.15L119.53 18.9386C119.593 18.9575 119.652 18.9894 119.702 19.0323C119.753 19.0752 119.794 19.1282 119.824 19.1881C119.854 19.2479 119.871 19.3133 119.875 19.3802C119.879 19.4472 119.87 19.5142 119.847 19.5773C119.661 20.0863 119.412 20.5686 119.104 21.0124V21.0124ZM115.904 12.8247C115.778 12.4475 115.566 12.1061 115.285 11.8285C114.989 11.5162 114.627 11.2755 114.228 11.1241C113.756 10.9162 113.246 10.8157 112.732 10.8297C112.236 10.8182 111.744 10.916 111.288 11.1162C110.895 11.2943 110.535 11.5397 110.223 11.8416C109.948 12.1274 109.725 12.4601 109.563 12.8247C109.496 12.9735 109.439 13.1272 109.395 13.2847C109.376 13.3577 109.373 13.4343 109.387 13.5085C109.402 13.5827 109.433 13.6526 109.478 13.7126C109.523 13.7726 109.581 13.8212 109.648 13.8546C109.714 13.888 109.788 13.9052 109.862 13.905L115.579 13.9365C115.653 13.9365 115.725 13.9196 115.791 13.887C115.857 13.8545 115.915 13.8071 115.961 13.7485C116.007 13.6898 116.039 13.6214 116.055 13.5484C116.071 13.4754 116.07 13.3996 116.054 13.3267C116.02 13.1548 115.97 12.9866 115.904 12.8247V12.8247Z" fill="#191B20"/>
    <path d="M124.876 8.7131C124.737 8.77076 124.61 8.85795 124.505 8.96919C124.395 9.09749 124.308 9.24468 124.247 9.40421C124.178 9.59079 124.145 9.7896 124.15 9.98944C124.143 10.1892 124.174 10.3883 124.241 10.5755C124.3 10.7371 124.386 10.8863 124.495 11.0163C124.602 11.1328 124.73 11.2248 124.873 11.2863C125.021 11.3474 125.178 11.3786 125.337 11.3782C125.479 11.3805 125.621 11.3543 125.754 11.3011C125.871 11.259 125.981 11.1957 126.077 11.1139C126.162 11.0394 126.234 10.949 126.287 10.8472C126.316 10.797 126.343 10.7449 126.365 10.6912C126.381 10.6563 126.408 10.6286 126.441 10.6134C126.475 10.5983 126.513 10.5967 126.547 10.6091L127.386 10.9071C127.422 10.9205 127.452 10.9479 127.469 10.9836C127.486 11.0192 127.489 11.0603 127.477 11.0983C127.425 11.2557 127.355 11.4059 127.269 11.5457C127.145 11.7452 126.99 11.9221 126.811 12.0693C126.617 12.2337 126.399 12.3635 126.165 12.4535C125.896 12.5467 125.614 12.592 125.33 12.5873C125.003 12.5914 124.678 12.5217 124.378 12.3829C124.084 12.2601 123.818 12.0764 123.594 11.8428C123.369 11.6065 123.192 11.3254 123.073 11.0163C122.947 10.688 122.884 10.3367 122.889 9.98288C122.888 9.62574 122.954 9.27191 123.083 8.94128C123.199 8.63623 123.373 8.35902 123.594 8.12648C123.815 7.89395 124.079 7.71095 124.37 7.58861C124.671 7.46084 124.993 7.39829 125.318 7.40475C125.608 7.40394 125.896 7.45245 126.17 7.54839C126.402 7.64098 126.618 7.76936 126.813 7.92924C126.99 8.07579 127.14 8.25492 127.256 8.45783C127.339 8.60284 127.408 8.75696 127.46 8.91748C127.471 8.95623 127.468 8.99812 127.45 9.03417C127.433 9.07023 127.402 9.09758 127.365 9.11037L126.503 9.4075C126.467 9.41962 126.429 9.41694 126.394 9.40001C126.36 9.38308 126.334 9.35318 126.32 9.31639C126.257 9.15598 126.163 9.01036 126.046 8.88793C125.889 8.71803 125.649 8.62774 125.337 8.6261C125.179 8.62454 125.023 8.65405 124.876 8.7131V8.7131Z" fill="#191B20"/>
    <path d="M131.003 7.62296C131.292 7.74881 131.555 7.93223 131.777 8.16305C131.998 8.40013 132.17 8.68121 132.285 8.98959C132.407 9.32134 132.467 9.67484 132.46 10.0304C132.464 10.3837 132.401 10.7345 132.275 11.0621C132.157 11.3692 131.982 11.6484 131.759 11.8829C131.535 12.1115 131.27 12.2922 130.98 12.4148C130.671 12.5504 130.338 12.6164 130.003 12.6085C129.668 12.6148 129.335 12.5474 129.027 12.4107C128.738 12.2848 128.475 12.1014 128.253 11.8706C128.032 11.6323 127.86 11.3497 127.747 11.0399C127.623 10.7111 127.564 10.3598 127.572 10.0066C127.568 9.64962 127.63 9.29523 127.755 8.96332C127.873 8.65639 128.048 8.37729 128.271 8.14253C128.497 7.91402 128.763 7.73342 129.054 7.61065C129.685 7.36314 130.38 7.36694 131.007 7.62132L131.003 7.62296ZM130.455 11.3231C130.599 11.2651 130.729 11.174 130.835 11.0564C130.947 10.9334 131.034 10.789 131.093 10.6312C131.165 10.4399 131.201 10.2359 131.2 10.0304C131.203 9.82346 131.169 9.61778 131.098 9.42461C131.041 9.26594 130.955 9.12041 130.845 8.99616C130.74 8.87765 130.61 8.78538 130.466 8.72611C130.182 8.60388 129.863 8.60065 129.576 8.71709C129.432 8.77508 129.302 8.86591 129.196 8.98302C129.084 9.10615 128.996 9.25084 128.938 9.40902C128.865 9.60158 128.829 9.80696 128.83 10.0139C128.827 10.2208 128.861 10.4264 128.931 10.6197C128.989 10.7783 129.075 10.9237 129.185 11.0482C129.291 11.1664 129.42 11.2586 129.563 11.3182C129.705 11.3779 129.856 11.4091 130.008 11.4101C130.161 11.4104 130.312 11.3809 130.454 11.3231H130.455Z" fill="#191B20"/>
    <path d="M133.036 7.59601L133.945 7.60093C133.965 7.60082 133.984 7.60476 134.002 7.61252C134.02 7.62028 134.037 7.6317 134.05 7.64613C134.064 7.66055 134.075 7.6777 134.082 7.69657C134.09 7.71544 134.094 7.73566 134.093 7.75606V7.76755C134.094 7.79689 134.102 7.82557 134.117 7.85021C134.132 7.87486 134.154 7.89442 134.179 7.9066C134.205 7.91878 134.233 7.92305 134.261 7.91892C134.288 7.91479 134.314 7.90242 134.336 7.88329V7.88329C134.441 7.7914 134.556 7.71364 134.68 7.65182C134.804 7.58985 134.936 7.54383 135.071 7.51475C135.2 7.48511 135.331 7.46916 135.463 7.46714C135.757 7.4611 136.047 7.53461 136.305 7.68055C136.477 7.78079 136.624 7.92126 136.735 8.09095C136.747 8.11088 136.764 8.12743 136.784 8.13926C136.804 8.15109 136.827 8.15787 136.849 8.15907C136.872 8.16027 136.895 8.15584 136.916 8.14615C136.937 8.13646 136.955 8.12177 136.97 8.10326C137.108 7.91708 137.286 7.76752 137.49 7.6666C137.749 7.54001 138.033 7.47873 138.319 7.48766C138.533 7.48913 138.744 7.52711 138.946 7.60011C139.145 7.67009 139.328 7.78181 139.484 7.92843C139.651 8.09156 139.78 8.29263 139.86 8.51612C139.961 8.78148 140.008 9.06561 139.999 9.35087L139.984 12.3632C139.984 12.4041 139.968 12.4431 139.94 12.4718C139.912 12.5006 139.875 12.5167 139.836 12.5167L138.908 12.5118C138.889 12.5117 138.87 12.5076 138.852 12.4997C138.834 12.4919 138.818 12.4804 138.804 12.466C138.791 12.4516 138.78 12.4345 138.773 12.4158C138.765 12.397 138.762 12.3769 138.762 12.3566L138.775 9.61189C138.785 9.37736 138.719 9.14627 138.589 8.95525C138.457 8.77549 138.249 8.68521 137.955 8.68356C137.835 8.67685 137.715 8.69904 137.605 8.74842C137.495 8.7978 137.397 8.87306 137.319 8.96838C137.165 9.15553 137.083 9.39555 137.088 9.64226L137.075 12.3509C137.075 12.3712 137.071 12.3912 137.063 12.4099C137.056 12.4286 137.045 12.4455 137.031 12.4598C137.017 12.474 137.001 12.4853 136.983 12.4929C136.965 12.5006 136.946 12.5045 136.927 12.5044L135.968 12.4945C135.93 12.4943 135.892 12.478 135.865 12.449C135.837 12.4201 135.822 12.381 135.822 12.3402L135.836 9.59547C135.845 9.35643 135.776 9.1213 135.64 8.92898C135.509 8.7599 135.3 8.66961 135.013 8.66797C134.727 8.66633 134.52 8.75497 134.368 8.94212C134.214 9.13298 134.132 9.37613 134.137 9.62584L134.124 12.3345C134.124 12.3547 134.12 12.3748 134.112 12.3935C134.105 12.4121 134.094 12.4291 134.08 12.4433C134.067 12.4576 134.05 12.4689 134.032 12.4765C134.014 12.4842 133.995 12.4881 133.976 12.488L133.01 12.483C132.99 12.4829 132.971 12.4788 132.953 12.471C132.936 12.4631 132.919 12.4517 132.906 12.4373C132.892 12.4229 132.882 12.4058 132.874 12.387C132.867 12.3683 132.863 12.3482 132.863 12.3279L132.886 7.75278C132.886 7.732 132.889 7.71134 132.897 7.69206C132.904 7.67278 132.915 7.65528 132.929 7.64062C132.943 7.62596 132.96 7.61445 132.978 7.60678C132.997 7.59911 133.017 7.59545 133.036 7.59601V7.59601Z" fill="#191B20"/>
    <defs>
        <linearGradient id="paint0_linear_134_673" x1="29.5223" y1="15.8534" x2="13.0481" y2="20.1072" gradientUnits="userSpaceOnUse">
            <stop stop-color="#5CEE9C"/>
            <stop offset="1" stop-color="#FFFB1F"/>
        </linearGradient>
    </defs>
</svg>
