<svg width="1761" height="1254" viewBox="0 0 1761 1254" fill="none" xmlns="http://www.w3.org/2000/svg">
	<path fill-rule="evenodd" clip-rule="evenodd" d="M1492.91 73.2869C1590.61 170.992 1590.61 329.403 1492.91 427.108L897.056 1022.96C799.351 1120.67 640.94 1120.67 543.236 1022.96C454.478 934.203 446.35 795.348 518.853 697.415L427.731 788.537C330.026 886.242 171.615 886.242 73.9106 788.537C-23.7944 690.832 -23.7944 532.421 73.9106 434.716L382.789 125.838C480.494 28.1329 638.905 28.1328 736.61 125.838C825.367 214.596 833.495 353.451 760.993 451.383L1139.09 73.2868C1236.79 -24.4181 1395.21 -24.418 1492.91 73.2869ZM1687.73 586.639C1785.36 684.27 1785.36 842.562 1687.73 940.193L1447.31 1180.61C1349.68 1278.24 1191.39 1278.24 1093.76 1180.61C996.125 1082.98 996.125 924.687 1093.76 827.056L1334.17 586.639C1431.8 489.008 1590.1 489.008 1687.73 586.639Z" fill="#53DA99"/>
</svg>
