<svg width="53" height="53" viewBox="0 0 53 53" fill="none" xmlns="http://www.w3.org/2000/svg">
	<circle cx="26.4561" cy="26.6503" r="26" fill="#0285FD"/>
	<path d="M25.3197 31.4545C25.3197 29.9599 24.8935 28.7499 24.0411 27.8958C23.1177 26.9706 21.9101 26.5435 20.2763 26.5435C19.637 26.5435 19.1398 26.6859 18.7846 26.8994C18.8556 25.2624 19.566 23.9101 20.7735 22.9136C21.9811 21.846 23.2597 21.2054 24.6094 20.9919V16.6503C23.4728 16.7214 22.2653 17.0773 20.9867 17.5755C19.708 18.0738 18.5005 18.7855 17.435 19.8531C16.3694 20.8496 15.446 22.2019 14.7357 23.8389C13.9543 25.4759 13.5991 27.4688 13.5991 29.8175C13.5991 31.7392 14.1674 33.3051 15.3039 34.6574C16.3694 36.0097 17.8612 36.6503 19.7791 36.6503C21.4129 36.6503 22.7625 36.152 23.828 35.0844C24.8225 34.0168 25.3197 32.8069 25.3197 31.4545ZM39.3134 31.4545C39.3134 29.9599 38.8872 28.7499 38.0348 27.8958C37.1114 26.9706 35.9038 26.5435 34.27 26.5435C33.6307 26.5435 33.1335 26.6859 32.7783 26.8994C32.8493 25.2624 33.5597 23.9101 34.7672 22.9136C35.9748 21.846 37.2534 21.2054 38.6031 20.9919V16.6503C37.4665 16.7214 36.2589 17.0773 34.9803 17.5755C33.7017 18.0738 32.4941 18.7855 31.4286 19.8531C30.3631 20.8496 29.4397 22.2019 28.7294 23.8389C27.948 25.4759 27.5928 27.4688 27.5928 29.8175C27.5928 31.7392 28.1611 33.3051 29.2976 34.6574C30.3631 36.0097 31.8548 36.6503 33.7728 36.6503C35.4065 36.6503 36.7562 36.152 37.8217 35.0844C38.8162 34.0168 39.3134 32.8069 39.3134 31.4545Z" fill="white"/>
</svg>
