<svg width="181" height="49" viewBox="0 0 181 49" fill="none" xmlns="http://www.w3.org/2000/svg">
	<g clip-path="url(#clip0_2584_17761)">
		<path fill-rule="evenodd" clip-rule="evenodd" d="M62.2123 29.9861L59.9811 26.1917H56.714V29.9861H54.7922V18.5928H60.5788C61.2843 18.5873 61.9776 18.7725 62.5835 19.1281C63.1894 19.4839 63.6845 19.9965 64.0149 20.61C64.3453 21.2235 64.4982 21.9146 64.4572 22.6079C64.416 23.3011 64.1825 23.9701 63.7819 24.5416C63.3635 25.1478 62.7731 25.6194 62.0843 25.8975L64.4652 29.9861H62.2123ZM60.5788 20.5267H56.714V24.3104H60.5788C60.8315 24.3102 61.0812 24.2589 61.3128 24.1594C61.5441 24.06 61.7523 23.9145 61.9241 23.7323C62.1902 23.4664 62.3709 23.1293 62.4437 22.763C62.5166 22.3967 62.4784 22.0173 62.3339 21.6723C62.1893 21.3272 61.9449 21.0315 61.6309 20.8222C61.317 20.613 60.9473 20.4992 60.5682 20.4952L60.5788 20.5267ZM81.1528 18.5928L75.3553 29.9861H77.5121L81.1528 22.8494L84.7829 29.9861H86.9395L81.1528 18.5928ZM105.581 18.5928H103.125L99.8259 22.7969L96.5376 18.5928H94.0714L98.9078 24.6678V29.9861H100.83V24.5732L105.581 18.5928ZM115.424 18.5928H119.279C120.81 18.6038 122.275 19.2076 123.358 20.2735C124.441 21.3394 125.054 22.782 125.065 24.2895C125.057 25.7978 124.445 27.2418 123.361 28.3083C122.278 29.3749 120.811 29.9778 119.279 29.9861H115.424V18.5928ZM119.279 28.0521C120.3 28.0494 121.279 27.6486 122.001 26.9377C122.723 26.2267 123.13 25.2634 123.133 24.2578C123.122 23.255 122.712 22.2962 121.992 21.587C121.271 20.8779 120.297 20.4746 119.279 20.4636H117.335V28.0521H119.279ZM137.909 18.5928H135.988V29.9861H137.909V18.5928ZM158.473 25.2248C158.484 25.8515 158.363 26.4737 158.119 27.0525C157.874 27.6311 157.512 28.1541 157.052 28.5881C156.378 29.2521 155.52 29.7041 154.584 29.8869C153.648 30.0695 152.679 29.9748 151.799 29.6146C150.918 29.2543 150.166 28.6448 149.638 27.8633C149.11 27.0819 148.829 26.1635 148.831 25.2248V18.5928H150.753V25.2248C150.753 25.9803 151.058 26.7047 151.601 27.239C152.142 27.7731 152.879 28.0731 153.646 28.0731C154.414 28.0731 155.15 27.7731 155.693 27.239C156.235 26.7047 156.539 25.9803 156.539 25.2248V18.5928H158.473V25.2248ZM171.316 29.9861V23.1754L175.191 26.98L179.047 23.1754V29.9861H181V18.5928L175.191 24.2895L169.405 18.5928V29.9861H171.316Z" fill="#F6F7F8"/>
		<path d="M40.5176 18.2354V35.1781L21.3744 46.0563L2.22073 35.1781V13.4112L21.3744 2.52248L36.0869 10.8887L38.3076 9.62748L21.3744 0L0 12.15L0 36.4394L21.3744 48.5893L42.749 36.4394V16.9742L40.5176 18.2354Z" fill="#F6F7F8"/>
		<path d="M16.0148 35.1887H12.8118V24.6152H23.4884C24.4985 24.6042 25.4636 24.2021 26.1749 23.496C26.8862 22.7899 27.2865 21.8365 27.2892 20.8419C27.295 20.3503 27.1986 19.8625 27.0058 19.4089C26.8129 18.9551 26.528 18.5452 26.1681 18.204C25.82 17.8517 25.4032 17.5724 24.9427 17.3828C24.4822 17.1931 23.9875 17.097 23.4884 17.1003H12.8118V13.8842H23.499C25.37 13.8952 27.1613 14.6318 28.4845 15.9342C29.8074 17.2367 30.5557 19.0001 30.5669 20.8419C30.5783 22.2519 30.1417 23.63 29.3178 24.7833C28.5596 25.8869 27.4911 26.7488 26.2429 27.2638C25.007 27.6497 23.7172 27.8412 22.4206 27.8314H16.0148V35.1887Z" fill="#F6F7F8"/>
		<path d="M30.4923 34.9258H26.7554L23.8728 29.9755C25.0133 29.9067 26.1382 29.6803 27.2145 29.3029L30.4923 34.9258Z" fill="#F6F7F8"/>
		<path d="M38.2861 14.7145L40.4961 15.9232L42.7063 14.7145V12.1605L40.4961 10.8992L38.2861 12.1605V14.7145Z" fill="#F6F7F8"/>
	</g>
	<defs>
		<clipPath id="clip0_2584_17761">
			<rect width="181" height="49" fill="white"/>
		</clipPath>
	</defs>
</svg>
