<svg width="71" height="71" viewBox="0 0 71 71" fill="none" xmlns="http://www.w3.org/2000/svg">
	<circle cx="35.5" cy="35.1133" r="35" fill="#FFFB1F"/>
	<path d="M24.5 33.6133C23.6716 33.6133 23 34.2849 23 35.1133C23 35.9417 23.6716 36.6133 24.5 36.6133L24.5 33.6133ZM47.5607 36.1739C48.1464 35.5882 48.1464 34.6384 47.5607 34.0526L38.0147 24.5067C37.4289 23.9209 36.4792 23.9209 35.8934 24.5067C35.3076 25.0925 35.3076 26.0422 35.8934 26.628L44.3787 35.1133L35.8934 43.5986C35.3076 44.1844 35.3076 45.1341 35.8934 45.7199C36.4792 46.3057 37.4289 46.3057 38.0147 45.7199L47.5607 36.1739ZM24.5 36.6133L46.5 36.6133L46.5 33.6133L24.5 33.6133L24.5 36.6133Z" fill="#191B20"/>
</svg>
