<svg width="71" height="71" viewBox="0 0 71 71" fill="none" xmlns="http://www.w3.org/2000/svg">
	<circle cx="35.4355" cy="35.8301" r="35" fill="#0285FD"/>
	<path d="M56.4355 35.8275C56.436 39.981 55.2048 44.0414 52.8976 47.4951C50.5905 50.9489 47.3109 53.6409 43.4737 55.2308C39.6365 56.8206 35.414 57.2369 31.3402 56.4269C27.2665 55.6169 23.5244 53.617 20.5873 50.6802C17.6501 47.7434 15.6498 44.0016 14.8393 39.9279C14.0288 35.8543 14.4445 31.6317 16.0338 27.7943C17.6232 23.9569 20.3148 20.677 23.7683 18.3694C27.2218 16.0618 31.282 14.8301 35.4355 14.8301C41.0044 14.8309 46.3449 17.0433 50.2829 20.9808C54.2209 24.9184 56.434 30.2586 56.4355 35.8275V35.8275Z" fill="#FFDD67"/>
	<path d="M42.438 46.9458C38.919 43.4277 40.4941 45.0007 44.2054 41.2885C47.9204 37.5779 46.344 36.0019 49.8629 39.5202C53.3789 43.0385 53.4846 46.4683 51.4337 48.5181C49.3834 50.5679 45.9554 50.4641 42.438 46.9458Z" fill="#FF717F"/>
	<path d="M44.9487 40.5459L49.7424 46.8272L43.4629 42.0318L44.9487 40.5459Z" fill="#E2596C"/>
	<path d="M33.0035 30.8285C31.7023 27.2501 29.7415 25.46 27.7807 25.46C25.8202 25.46 23.8594 27.2501 22.5582 30.8285C22.4294 31.1884 23.1007 31.8384 23.4359 31.4846C23.9966 30.8967 24.6708 30.4287 25.4176 30.1089C26.1644 29.7892 26.9684 29.6243 27.7808 29.6243C28.5933 29.6243 29.3972 29.7892 30.1441 30.1089C30.8909 30.4287 31.5651 30.8967 32.1258 31.4846C32.4611 31.8393 33.1323 31.1884 33.0035 30.8285Z" fill="#664E27"/>
	<path d="M48.3128 30.8285C47.0113 27.2501 45.0508 25.46 43.09 25.46C41.1293 25.46 39.1685 27.2501 37.8673 30.8285C37.7385 31.1884 38.4097 31.8384 38.7452 31.4846C39.3059 30.8967 39.98 30.4287 40.7269 30.1089C41.4737 29.7892 42.2776 29.6243 43.09 29.6243C43.9024 29.6243 44.7064 29.7892 45.4532 30.1089C46.2001 30.4287 46.8742 30.8967 47.4349 31.4846C47.7695 31.8393 48.4408 31.1884 48.3128 30.8285Z" fill="#664E27"/>
	<path d="M46.7128 36.5436C43.6832 40.8182 40.0971 41.8947 35.4359 41.8947C30.7744 41.8947 27.1884 40.8192 24.1588 36.5436C24.0562 36.4062 23.9085 36.3092 23.7416 36.2696C23.5748 36.2301 23.3993 36.2504 23.2459 36.327C23.0925 36.4036 22.9709 36.5318 22.9023 36.689C22.8337 36.8461 22.8226 37.0224 22.8708 37.187C23.7934 39.7815 25.4965 42.0267 27.7463 43.6145C29.9961 45.2022 32.6821 46.0546 35.4358 46.0546C38.1894 46.0546 40.8755 45.2022 43.1253 43.6145C45.3751 42.0267 47.0782 39.7815 48.0008 37.187C48.0491 37.0224 48.0381 36.846 47.9696 36.6888C47.901 36.5315 47.7794 36.4033 47.6259 36.3266C47.4724 36.2499 47.2969 36.2297 47.1299 36.2693C46.963 36.309 46.8154 36.4061 46.7128 36.5436V36.5436Z" fill="#664E27"/>
</svg>
