<svg width="185" height="46" viewBox="0 0 185 46" fill="none" xmlns="http://www.w3.org/2000/svg">
	<path fill-rule="evenodd" clip-rule="evenodd" d="M0.723428 0.902208C5.33972 6.53677 10.4083 13.6155 11.2281 14.7604C11.2718 14.8215 11.3035 14.8657 11.3223 14.8918C11.7593 15.4993 12.1201 15.9509 12.3941 16.2938L12.3941 16.2939C13.0023 17.0551 13.1828 17.281 12.8199 17.4885C12.5271 17.6558 12.2251 17.711 11.9238 17.711C11.583 17.711 11.199 17.546 10.9194 17.2792C10.7218 17.0907 9.36947 15.1156 7.52805 12.2422C6.11913 10.0436 4.94002 8.2198 4.90785 8.18927C4.83348 8.11864 4.83475 8.12103 7.3844 12.7088C8.98536 15.5897 10.0805 17.7186 10.0805 17.8548C10.0805 18.1318 10.0053 18.2774 9.66547 18.6586C9.09896 19.2943 8.84569 20.0085 8.66289 21.4864C8.45794 23.1432 7.88165 24.3137 6.28457 26.3166C5.34969 27.4892 5.19673 27.7041 4.96083 28.1767C4.66371 28.7719 4.58199 29.1052 4.54888 29.8567C4.51388 30.6513 4.58205 31.1646 4.82343 31.9242C5.03477 32.5893 5.25534 33.0286 5.81926 33.907C6.30592 34.6648 6.58613 35.2281 6.58613 35.4486C6.58613 35.6239 6.61942 35.6241 7.37353 35.453C9.17821 35.043 10.6436 34.3223 11.4678 33.4389C11.9778 32.8921 12.0976 32.5902 12.1015 31.841C12.104 31.3509 12.0869 31.2484 11.9552 30.9664C11.7407 30.5074 11.3504 30.126 10.49 29.5345C9.36263 28.7594 8.88113 28.1355 8.74813 27.2774C8.63903 26.5734 8.76561 26.0766 9.38926 24.7622C10.0348 23.4015 10.1947 22.8218 10.3029 21.4502C10.3728 20.5641 10.4696 20.2147 10.7228 19.9343C10.9868 19.6418 11.2245 19.5427 11.8778 19.4528C12.943 19.3066 13.6213 19.0294 14.1789 18.5127C14.6625 18.0645 14.8649 17.6326 14.896 16.9825L14.9196 16.4897L14.6493 16.1728C13.6705 15.0251 0.0679323 0 0.00769677 0C-0.00517126 0 0.316921 0.406021 0.723428 0.902208ZM7.13559 30.7558C7.35689 30.3615 7.23931 29.855 6.86912 29.6073C6.51935 29.3735 5.97602 29.4837 5.97602 29.7885C5.97602 29.8814 6.02715 29.9491 6.14242 30.0089C6.33649 30.1093 6.35058 30.2222 6.19788 30.453C6.04324 30.6868 6.05571 30.8923 6.23309 31.0318C6.51896 31.257 6.92364 31.1332 7.13559 30.7558ZM13.7967 9.2622C13.36 9.19408 13.3416 9.18609 13.5471 9.15433C13.9409 9.09341 14.8707 9.17642 15.5115 9.32966C17.0075 9.68725 18.3687 10.6033 19.8218 12.2303L20.2077 12.6626L20.76 12.5733C23.0865 12.1973 25.4532 12.4961 27.4327 13.4157C27.9773 13.6687 28.8359 14.1724 28.9432 14.3018C28.9772 14.343 29.0402 14.6085 29.0825 14.8918C29.2296 15.872 29.1561 16.6233 28.8579 17.1845C28.6958 17.4898 28.6867 17.5866 28.7957 17.8479C28.8827 18.0565 29.1255 18.2108 29.3659 18.2105C29.8578 18.2098 30.3872 17.4101 30.6326 16.2974L30.73 15.8554L30.9231 16.0753C31.9819 17.2818 32.8137 18.9272 32.9566 20.0984L32.9937 20.4037L32.8158 20.1262C32.5094 19.6485 32.2017 19.3233 31.8075 19.061C31.0971 18.5882 30.3458 18.4274 28.3564 18.3219C26.5595 18.2267 25.5427 18.0723 24.5343 17.7417C22.8185 17.1791 21.9538 16.4299 19.9157 13.741C19.0105 12.5466 18.4511 11.8858 17.8945 11.3536C16.6299 10.1445 15.3873 9.51033 13.7967 9.2622ZM29.3484 11.9289C29.3936 11.1286 29.5016 10.6007 29.7186 10.1186C29.8044 9.92778 29.8849 9.77159 29.8972 9.77159C29.9097 9.77159 29.8724 9.91245 29.8143 10.0846C29.6566 10.5524 29.6306 11.1924 29.7394 11.9369C29.8772 12.8816 29.9557 13.0179 30.9485 14.0383C31.4142 14.517 31.9559 15.1207 32.1523 15.3798L32.5094 15.8511L32.1523 15.5143C31.7157 15.1025 30.7115 14.2992 30.4898 14.1844C30.341 14.1074 30.3188 14.1087 30.2272 14.2006C30.1427 14.2852 30.1248 14.4123 30.113 15.0134C30.0947 15.9502 29.9679 16.5515 29.6614 17.1527C29.4957 17.4779 29.4695 17.4085 29.6194 17.0414C29.7315 16.7674 29.7428 16.6469 29.7421 15.7401C29.7403 13.9179 29.5251 13.4799 28.2636 12.7294C27.9442 12.5394 27.4175 12.2652 27.0935 12.1202C26.7697 11.9751 26.5124 11.8488 26.5216 11.8394C26.5574 11.8036 27.7877 12.1648 28.2829 12.3563C29.0194 12.6412 29.1409 12.6782 29.2304 12.6438C29.2903 12.6207 29.3193 12.4451 29.3484 11.9289ZM13.3286 10.53C13.2099 11.9368 13.7584 13.8186 14.6449 15.046C15.3321 15.9975 16.3974 16.7369 17.1838 16.8083C17.6988 16.855 17.8535 16.6929 17.6206 16.3508C17.2971 15.8757 16.8994 15.1443 16.7941 14.8312C16.7287 14.6366 16.5866 14.062 16.4783 13.5542C16.1085 11.8206 15.745 11.1455 14.9054 10.6327C14.5995 10.4458 13.9461 10.2012 13.5672 10.1317L13.3654 10.0947L13.3286 10.53ZM28.2732 24.1809C24.1303 22.5034 22.6711 21.0473 22.6711 18.5905C22.6711 18.2289 22.6836 17.9331 22.6986 17.9331C22.7138 17.9331 22.874 18.0524 23.0547 18.1983C23.8948 18.8759 24.8356 19.1653 27.4401 19.5473C28.9724 19.7723 29.8349 19.9538 30.6305 20.2193C33.1591 21.0626 34.7236 22.774 35.0967 25.1053C35.2051 25.7826 35.1415 27.0528 34.9658 27.7223C34.827 28.2511 34.4035 29.2041 34.2912 29.2407C34.26 29.2508 34.2294 29.1308 34.2215 28.9675C34.179 28.0922 33.7391 27.2401 33.0005 26.6016C32.1605 25.8758 31.0321 25.2981 28.2732 24.1809ZM25.1646 23.9963C25.2228 24.1705 25.3128 24.5671 25.3646 24.8778C25.6965 26.8638 24.6599 28.4684 22.6433 29.0902C22.4298 29.156 21.589 29.3216 20.7747 29.4578C19.1263 29.7338 18.3906 29.9293 17.6515 30.2874C17.1274 30.5413 16.4928 30.9216 16.5305 30.9593C16.5427 30.9716 16.6623 30.9429 16.7963 30.8955C17.7283 30.5664 18.7656 30.396 20.3415 30.3136C20.967 30.281 21.6783 30.2289 21.9224 30.198C23.3264 30.0202 24.2995 29.5912 25.0562 28.8167C25.4772 28.3856 25.7283 27.9841 25.9306 27.4179C26.0588 27.0587 26.0761 26.9253 26.0771 26.289C26.0783 25.6406 26.0627 25.5219 25.9237 25.1231C25.7418 24.6002 25.5271 24.2079 25.2553 23.901L25.0589 23.6795L25.1646 23.9963ZM27.2639 28.2697C26.7133 27.0796 26.5871 25.9308 26.8885 24.8594C26.9209 24.7447 26.9726 24.651 27.004 24.651C27.0352 24.651 27.165 24.7217 27.2926 24.808C27.5461 24.9797 28.0549 25.269 29.4102 26.012C31.1016 26.9393 32.0658 27.6573 32.7215 28.4778C33.2958 29.1962 33.6511 30.0144 33.8221 31.0122C33.9191 31.5775 33.8623 32.9375 33.7181 33.5066C33.2634 35.3012 32.2065 36.7107 30.6992 37.5333C30.4784 37.6537 30.2801 37.7526 30.2586 37.7532C30.2372 37.7535 30.3177 37.5479 30.4374 37.2958C30.9445 36.2298 31.0022 35.1929 30.6189 34.0389C30.3841 33.3322 29.9055 32.4699 28.9391 31.0124C27.8156 29.3181 27.5402 28.8671 27.2639 28.2697ZM16.8955 32.1728C15.1531 32.4574 13.2402 33.3847 11.7028 34.6901L11.2451 35.0788L11.6473 35.1421C13.7464 35.4716 14.3117 35.7639 15.7677 37.2723C16.6056 38.1401 16.8886 38.3333 17.5836 38.5118C18.6044 38.7738 19.6106 38.2923 19.9557 37.3765C20.1099 36.9673 20.0893 36.2898 19.9124 35.9496C19.4916 35.1394 18.2656 34.8776 17.6727 35.471C17.1789 35.9653 17.3228 36.7099 17.9369 36.838C18.0776 36.8675 18.0736 36.8611 17.9011 36.7828C17.6323 36.6605 17.5156 36.491 17.5141 36.2214C17.5106 35.5891 18.2301 35.2341 18.8995 35.5377C19.3896 35.7602 19.5842 36.0508 19.5842 36.5602C19.5842 37.3447 18.9203 37.9358 18.1476 37.8392C17.7347 37.7875 17.2296 37.5218 16.9588 37.214C16.2773 36.4391 16.5428 35.2163 17.4942 34.7471C18.2185 34.39 19.1814 34.478 19.928 34.9696C20.7858 35.5346 21.1506 36.051 21.8895 37.7457C22.1301 38.2975 22.4397 38.9187 22.5773 39.1261C23.2773 40.1797 24.1158 40.6964 25.1259 40.6964C25.683 40.6964 26.1021 40.594 26.6294 40.3294C27.0212 40.1325 27.5765 39.7586 27.5365 39.7185C27.5251 39.7072 27.3627 39.758 27.1754 39.8314C26.0725 40.264 24.9513 40.2343 24.3003 39.7549C23.8902 39.4532 23.5595 38.8522 23.3895 38.1005C23.36 37.9703 23.263 37.3957 23.1737 36.8234C22.9473 35.3729 22.73 34.7208 22.2231 33.9725C21.7045 33.207 20.7075 32.5646 19.5929 32.2776C18.8974 32.0986 17.6465 32.0499 16.8955 32.1728ZM14.4551 20.9578C14.6056 20.3989 15.0917 19.8659 15.5918 19.7114C15.9098 19.6133 16.5671 19.6759 16.8761 19.8339C17.475 20.1401 17.9098 20.8376 17.8155 21.3411C17.7004 21.955 16.7104 22.4463 15.5716 22.4543C14.9899 22.4584 14.7751 22.3798 14.5529 22.0815C14.4154 21.8968 14.3633 21.2988 14.4551 20.9578ZM16.7232 20.0527C17.0219 20.2362 17.0987 20.5074 16.9231 20.7583C16.8021 20.9312 16.4276 21.0954 16.1539 21.0954C15.7428 21.0954 15.2942 20.8018 15.2942 20.5329C15.2942 19.9926 16.1544 19.7033 16.7232 20.0527ZM105.989 21.5999C105.06 18.5231 106.592 15.9711 109.861 15.151C110.799 14.9157 115.044 15.0219 115.771 15.2989C116.039 15.4004 116.155 15.7901 116.157 16.5909C116.159 17.2216 116.228 17.9876 116.311 18.293C116.436 18.756 116.363 18.8471 115.872 18.8397C115.428 18.8328 115.16 18.5738 114.785 17.7903C114.186 16.5388 113.462 16.1407 111.773 16.1361C109.617 16.1299 108.039 17.5752 108.296 19.3215C108.463 20.4579 109.604 21.5761 112.163 23.1133C114.598 24.5755 116.019 25.778 116.585 26.8554C118.099 29.7357 116.806 32.8181 113.433 34.3712C111.701 35.1683 108.798 35.2508 106.758 34.5608L105.451 34.1188V32.04C105.451 30.1572 105.496 29.9608 105.927 29.9608C106.288 29.9608 106.444 30.198 106.57 30.9413C106.885 32.7896 108.296 33.9116 110.305 33.9116C112.273 33.9116 113.649 32.8409 114.176 30.8995C114.4 30.0725 114.362 29.7676 113.916 28.8552C113.383 27.7614 112.464 27.0355 109.343 25.2431C107.612 24.2483 106.387 22.9184 105.989 21.5999ZM44.8139 16.3793C44.3881 16.3793 44.2219 16.2407 44.2219 15.8854C44.2219 15.415 44.3881 15.3915 47.7248 15.3915C50.8219 15.3915 51.2182 15.4379 51.1472 15.7918C51.1027 16.0121 50.6748 16.3175 50.1956 16.4709L49.3243 16.7497L49.25 23.0466C49.2002 27.2483 49.2702 29.6721 49.4603 30.3311C50.0253 32.2909 51.7488 33.4179 54.1805 33.4179C55.8735 33.4179 56.8624 33.0238 58.1048 31.8535C59.4412 30.5954 59.6543 29.3999 59.6501 23.1869C59.646 17.0584 59.5388 16.5526 58.2169 16.4254C57.6153 16.3674 57.4137 16.2279 57.4137 15.8698C57.4137 15.4234 57.6122 15.3915 60.4005 15.3915C63.2213 15.3915 63.3872 15.4189 63.3872 15.8854C63.3872 16.1896 63.2199 16.3807 62.9516 16.383C61.7988 16.3931 61.7777 16.5023 61.6225 23.2223C61.4616 30.2009 61.3112 31.0272 59.8907 32.7367C59.4811 33.2298 58.5041 33.9459 57.7198 34.3281C56.4417 34.9508 56.0352 35.0223 53.8046 35.0183C51.7484 35.014 51.0993 34.9152 50.0711 34.4492C48.5703 33.769 47.5943 32.8887 46.8747 31.5658C46.3724 30.6423 46.3295 30.1427 46.2132 23.8861C46.08 16.7245 46.0155 16.3793 44.8139 16.3793ZM68.1046 16.3793C67.5356 16.3793 67.3696 16.2677 67.3696 15.8854C67.3696 15.4224 67.5286 15.3928 69.9208 15.4118L72.4721 15.432L73.6927 16.8316C74.3636 17.6013 76.5513 20.0092 78.5536 22.1822C80.556 24.3553 82.855 26.8832 83.6621 27.7999C84.4695 28.7168 85.2294 29.4668 85.3508 29.4668C85.4756 29.4668 85.5378 26.877 85.4933 23.5187L85.4147 17.5705L84.7163 16.9749C84.3323 16.6472 83.7445 16.3793 83.4098 16.3793C82.9645 16.3793 82.8014 16.2449 82.8014 15.8785C82.8014 15.3962 82.9285 15.3802 86.2237 15.4463C89.0256 15.5026 89.6461 15.5804 89.6461 15.8753C89.6461 16.0854 89.2995 16.3059 88.814 16.4045C88.3566 16.4973 87.8525 16.7018 87.694 16.8588C87.4896 17.0616 87.3854 19.6828 87.3348 25.8984L87.2634 34.6524H86.5421C85.921 34.6524 85.1818 33.9566 81.2296 29.652C78.7045 26.9016 75.757 23.6329 74.6797 22.3882C73.6023 21.1433 72.6368 20.1154 72.5342 20.1041C72.2453 20.0719 72.3152 31.1936 72.6107 32.2493C72.8411 33.0719 72.9995 33.2135 73.9784 33.4734C74.7667 33.6825 75.0855 33.8947 75.0855 34.2098C75.0855 34.6144 74.785 34.6524 71.601 34.6524C68.3597 34.6524 68.1164 34.6202 68.1164 34.1895C68.1164 33.8742 68.3508 33.6801 68.8518 33.5806C70.3716 33.2791 70.4725 32.8005 70.5578 25.4846C70.6055 21.3871 70.5354 18.5202 70.3724 17.9199C70.0859 16.8643 69.3721 16.3793 68.1046 16.3793ZM94.2033 16.3793C93.6701 16.3793 93.5041 16.262 93.5041 15.8854C93.5041 15.4135 93.6701 15.3915 97.2376 15.3915C100.805 15.3915 100.971 15.4135 100.971 15.8854C100.971 16.2477 100.805 16.3793 100.349 16.3793C100.007 16.3793 99.498 16.606 99.2187 16.883C98.7257 17.3722 98.713 17.6155 98.7833 25.1756C98.8516 32.5557 98.8809 32.9828 99.3384 33.3145C99.6043 33.5072 100.08 33.6647 100.396 33.6647C100.805 33.6647 100.971 33.8071 100.971 34.1586C100.971 34.6305 100.805 34.6524 97.2376 34.6524C93.7549 34.6524 93.5041 34.6213 93.5041 34.1903C93.5041 33.8426 93.7484 33.6891 94.4901 33.5714C95.963 33.3377 96.0383 32.8593 95.9465 24.3227C95.8731 17.4863 95.8415 17.0601 95.3855 16.7294C95.1196 16.5368 94.5877 16.3793 94.2033 16.3793ZM120.246 16.3793C119.906 16.3793 119.647 16.1913 119.566 15.8854C119.441 15.4078 119.559 15.3915 123.146 15.3915C126.691 15.3915 126.856 15.4135 126.856 15.8854C126.856 16.2649 126.691 16.3793 126.14 16.3793C124.573 16.3793 124.609 16.6617 126.98 23.1196C128.187 26.4069 129.359 29.5295 129.584 30.0587L129.994 31.0211L131.895 25.9843C134.133 20.0554 134.423 18.959 134.043 17.8777C133.778 17.124 132.749 16.3793 131.971 16.3793C131.752 16.3793 131.586 16.1669 131.586 15.8854C131.586 15.4128 131.752 15.3915 135.444 15.3915C139.136 15.3915 139.302 15.4128 139.302 15.8854C139.302 16.2368 139.136 16.3793 138.727 16.3793C137.68 16.3793 137.219 16.9329 137.369 18.0086C137.524 19.1158 141.805 31.0163 141.984 30.8382C142.277 30.5486 147.017 17.7377 147.017 17.2383C147.017 16.64 146.595 16.3793 145.628 16.3793C145.192 16.3793 145.026 16.2432 145.026 15.8854C145.026 15.4189 145.192 15.3915 148.013 15.3915C150.546 15.3915 151 15.4498 151 15.7748C151 15.9857 150.69 16.2654 150.31 16.3965C149.457 16.6916 149.243 17.0285 148.172 19.7568C147.702 20.9549 146.231 24.7047 144.903 28.0891C143.575 31.474 142.432 34.3909 142.362 34.5713C142.292 34.7519 141.881 34.8994 141.447 34.8994H140.659L138.871 30.2693C137.888 27.7231 136.726 24.7062 136.29 23.5654C135.542 21.6106 135.479 21.5257 135.198 22.0836C135.033 22.4097 133.852 25.4319 132.572 28.7998L130.246 34.9236L129.377 34.8498L128.509 34.776L125.197 26.1525C123.346 21.3346 121.645 17.2751 121.341 16.9541C121.041 16.6378 120.549 16.3793 120.246 16.3793ZM170.014 16.484C169.973 16.3902 169.973 16.0531 169.973 16.0531C169.973 16.0531 169.963 15.9315 170.015 15.8666C170.066 15.802 170.084 15.8003 170.267 15.7829L170.269 15.7828C170.941 15.7191 172.289 15.612 173.414 15.5631C173.517 15.5587 173.632 15.5535 173.756 15.5479L173.759 15.5478L173.76 15.5477L173.761 15.5476C175 15.4917 177.216 15.4169 178.739 15.4926C181.661 15.638 183.739 17.0444 184.448 19.3685C185.156 21.6925 184.781 23.874 183.816 25.2626C182.85 26.6513 181.227 27.8469 178.528 27.7691C176.301 27.7048 175.705 27.2895 175.228 26.9577C175.128 26.8876 175.032 26.8211 174.928 26.7626V29.7264C174.952 31.7477 174.969 32.7185 175.126 33.0778C175.338 33.5616 175.816 33.8596 176.749 34.0881C176.749 34.0881 177.171 34.1866 177.28 34.2917C177.389 34.3967 177.389 34.63 177.389 34.63C177.389 34.63 177.411 34.8481 177.324 34.9592C177.236 35.0704 177.068 35.0482 177.068 35.0482L172.936 35.015L170.445 35.0085C170.445 35.0085 170.184 35.0583 170.086 34.9537C169.988 34.8488 169.997 34.6305 169.997 34.6305C169.997 34.6305 170.019 34.3954 170.133 34.2901C170.247 34.1847 170.673 34.067 170.673 34.067C171.633 33.7985 172.05 33.5145 172.268 32.9793C172.443 32.5479 172.444 31.7479 172.442 25.2191C172.441 19.0277 172.432 17.8728 172.289 17.5406C172.078 17.0489 171.549 16.9186 170.797 16.7332L170.797 16.7331C170.648 16.6963 170.49 16.6574 170.324 16.613C170.324 16.613 170.056 16.5778 170.014 16.484ZM182.043 21.5361C182.043 22.5513 182.025 24.1408 180.94 25.1568C179.854 26.1729 177.717 26.451 176.266 26.1681C175.809 26.0789 175.547 25.9415 175.346 25.8355L175.325 25.825L174.954 25.6302L174.932 22.0631C174.919 19.8281 174.942 18.3719 174.995 18.1638C175.044 16.9853 176.79 16.8387 177.643 16.8823C181.292 16.8823 181.937 19.9441 182.043 21.5361ZM158.553 15.5298C158.553 15.5298 158.375 15.5979 158.105 15.7L157.13 16.2011L156.428 17.9454C156.043 18.9048 155.336 20.6659 154.86 21.859C153.991 24.0321 153.417 25.4599 152.814 26.9501C152.636 27.3884 152.1 28.7232 151.622 29.9163C151.145 31.1092 150.667 32.2447 150.561 32.4394C150.544 32.4718 150.525 32.5067 150.505 32.5435C150.238 33.0433 149.774 33.9116 148.955 34.0429C148.955 34.0429 148.504 34.087 148.337 34.251C148.17 34.4153 148.187 34.5494 148.187 34.5494V34.7563C148.187 34.7563 148.202 34.8565 148.296 34.9063C148.391 34.9564 148.519 34.9592 148.519 34.9592L151.516 34.9253H154.615C154.615 34.9253 154.834 34.9508 154.918 34.881C155.003 34.8113 155.026 34.7078 155.026 34.7078V34.49C155.026 34.49 154.983 34.2539 154.86 34.1617C154.738 34.0697 154.278 34.0067 154.278 34.0067C153.037 33.8443 152.824 32.9103 152.977 32.0704C153.052 31.6578 153.551 30.1313 154.112 28.5946L154.306 28.0635L157.552 28.0387C159.338 28.0251 160.88 28.0343 160.978 28.0592C161.119 28.0947 161.316 28.4936 161.896 29.9142C162.773 32.0666 162.843 32.3288 162.649 32.7315C162.637 32.756 162.625 32.7831 162.611 32.8122C162.429 33.2017 162.075 33.9584 161.183 34.0354C161.183 34.0354 160.709 34.0517 160.592 34.1926C160.474 34.3336 160.499 34.4958 160.499 34.4958V34.7112C160.499 34.7112 160.531 34.8375 160.592 34.8876C160.652 34.9376 160.755 34.9249 160.755 34.9249L163.702 34.9038L167.844 34.9037C167.844 34.9037 168.007 34.9209 168.051 34.8588C168.095 34.7965 168.104 34.7233 168.104 34.7233V34.4371C168.104 34.4371 168.086 34.285 168.006 34.201C167.927 34.1172 167.39 34.0287 167.39 34.0287C166.703 33.9185 166.362 33.3546 166.107 32.9347C166.042 32.8275 165.983 32.7298 165.925 32.6514C165.807 32.4913 165.386 31.6143 165.056 30.7707C164.726 29.9272 163.982 28.0217 163.403 26.5364C162.823 25.0512 162.014 22.9793 161.605 21.9324C161.195 20.8853 160.418 18.8932 159.877 17.5053C159.788 17.2775 159.708 17.0729 159.637 16.8897L159.637 16.8889C159.274 15.9568 159.128 15.5807 159.088 15.5298C158.957 15.3645 158.553 15.5298 158.553 15.5298ZM158.36 21.2014C158.23 20.885 157.999 20.3172 157.849 19.9398C157.576 19.2539 157.472 19.0959 157.387 19.2376C157.363 19.279 157.191 19.7478 157.005 20.2795C155.804 23.7218 155.26 25.2718 155.15 25.5639C155.082 25.7475 155.026 25.9367 155.026 25.9844C155.026 26.0393 156.003 26.0713 157.677 26.0713C159.135 26.0713 160.328 26.0533 160.328 26.0312C160.328 26.0092 160.198 25.6807 160.039 25.3008C159.88 24.9209 159.491 23.9727 159.174 23.1936C158.858 22.4145 158.491 21.518 158.36 21.2014Z" fill="#191B20"/>
</svg>
